<svg width="128" height="128" version="1.1" xmlns="http://www.w3.org/2000/svg" desc="Created with imagetracer.js version 1.2.6" ><path fill="rgb(0,0,0)" stroke="rgb(0,0,0)" stroke-width="1" opacity="0" d="M 0 0 L 128 0 L 128 128 L 0 128 L 0 0 Z M 54 6 L 50 8 L 47 16 L 45 30 L 45 32 Q 43 33 44 39 L 44 41 L 40 61 Q 41 68 39 67 L 39 66 L 38 61 L 38 59 L 37 56 L 37 54 Q 34 50 35 44 L 29 40 L 27 41 Q 24 40 25 43 L 23 43 L 20 48 Q 21 51 19 50 L 19 52 L 18 52 Q 13 56 12 64 L 11 67 L 13 71 L 18 74 L 23 72 L 24 71 L 22 69 Q 25 67 23 66 L 24 63 L 27 61 L 26 63 L 30 80 L 35 89 L 40 91 L 44 90 L 48 84 L 49 77 L 51 73 L 51 66 L 54 56 L 55 46 L 55 49 L 55 51 L 57 67 L 57 69 L 59 77 L 59 88 L 62 97 L 62 99 Q 64 105 69 109 L 75 107 L 77 101 Q 74 99 76 93 L 76 91 L 77 68 L 78 67 L 78 59 L 80 52 L 82 67 L 82 75 L 82 77 L 83 78 L 83 87 L 88 91 L 91 91 L 94 89 L 101 66 L 102 69 L 108 73 L 111 71 L 116 75 L 119 75 L 123 70 L 121 59 L 118 53 L 112 49 L 107 51 Q 104 50 106 49 L 100 45 L 96 47 Q 92 49 92 55 L 87 32 L 87 28 Q 84 29 85 26 Q 83 24 78 25 L 72 35 L 71 42 L 68 51 L 63 34 L 61 18 L 61 16 Q 59 14 60 10 L 54 6 Z " /><path fill="rgb(7,86,254)" stroke="rgb(7,86,254)" stroke-width="1" opacity="0.9921568627450981" d="M 54.5 14 L 55 15.5 L 54.5 17 L 56.5 16 L 57 18.5 L 56 22 L 54 22.5 L 57 24 L 56 26.5 L 58 27.5 L 55 29.5 L 55 31.5 L 56 33.5 L 52 34 Q 53 30.2 50.5 29 L 49 28.5 L 51 28 L 49 18.5 L 54.5 14 Z " /><path fill="rgb(7,86,254)" stroke="rgb(7,86,254)" stroke-width="1" opacity="0.9921568627450981" d="M 83.5 30 L 84 32 L 82 32.5 L 86 34.5 L 82 37 L 81 43.5 L 76.5 51 L 71 49.5 L 76 48 L 79 41.5 L 77 34 Q 80 35 79 32 L 81.5 32 L 83.5 30 Z " /><path fill="rgb(7,86,254)" stroke="rgb(7,86,254)" stroke-width="1" opacity="0.9921568627450981" d="M 58.5 31 L 60.5 35 Q 62.8 34.3 62 36.5 L 62.5 38 L 59.5 40 L 57 32.5 L 58.5 31 Z " /><path fill="rgb(7,86,254)" stroke="rgb(7,86,254)" stroke-width="1" opacity="0.9921568627450981" d="M 48.5 36 L 52 37 L 50.5 40 L 48 38.5 L 48.5 36 Z " /><path fill="rgb(7,86,254)" stroke="rgb(7,86,254)" stroke-width="1" opacity="0.9921568627450981" d="M 51.5 44 L 52 46 L 49 45.5 L 51.5 44 Z " /><path fill="rgb(7,86,254)" stroke="rgb(7,86,254)" stroke-width="1" opacity="0.9921568627450981" d="M 29.5 49 Q 31.8 48.3 31 50.5 L 29.5 49 Z " /><path fill="rgb(7,86,254)" stroke="rgb(7,86,254)" stroke-width="1" opacity="0.9921568627450981" d="M 46.5 49 L 48.5 49 Q 50.8 48.3 50 50.5 L 49 53 Q 52 52 51 55 L 47.5 56 Q 49.1 54.3 46 52.5 L 46.5 49 Z " /><path fill="rgb(7,86,254)" stroke="rgb(7,86,254)" stroke-width="1" opacity="0.9921568627450981" d="M 87.5 50 L 88 54.5 L 87 57.5 L 90 59.5 L 89 62 L 93 64 L 93.5 61 L 95.5 62 L 97.5 62 Q 99.8 62.8 99 60.5 L 96 54.5 L 99 50 L 103 51 L 104 55.5 L 103.5 57 L 107.5 56 L 109.5 57 L 109.5 55 Q 115 54.5 117 57.5 L 121 67 L 117.5 68 L 113.5 66 L 111.5 66 L 107.5 67 L 107.5 65 L 105 65.5 L 105.5 67 L 103 62.5 L 103.5 61 Q 98.5 60.5 98 64.5 L 95 78.5 L 93 80.5 L 94 82.5 L 91.5 86 L 88 84.5 L 88.5 83 L 85 81.5 L 88 81 L 87.5 79 Q 86.3 81.3 85 78.5 L 87 78.5 L 86 75.5 L 87 73 Q 84 74 85 71 Q 87.7 72.1 87 69.5 L 87.5 67 Q 88.7 69.3 90 66.5 L 87.5 63 L 86 63.5 L 87 58.5 L 84 57 Q 82.8 52.4 85.5 51 L 87.5 50 Z " /><path fill="rgb(7,86,254)" stroke="rgb(7,86,254)" stroke-width="1" opacity="0.9921568627450981" d="M 62.5 52 L 61.5 54 L 60 53.5 L 62.5 52 Z " /><path fill="rgb(7,86,254)" stroke="rgb(7,86,254)" stroke-width="1" opacity="0.9921568627450981" d="M 74.5 54 Q 76.8 53.3 76 55.5 L 76 57.5 L 75.5 59 L 74.5 57 L 72.5 57 L 70.5 58 L 71.5 56 L 74.5 54 Z " /><path fill="rgb(7,86,254)" stroke="rgb(7,86,254)" stroke-width="1" opacity="0.9921568627450981" d="M 34.5 56 L 35 58.5 L 34 58.5 L 34.5 56 Z " /><path fill="rgb(7,86,254)" stroke="rgb(7,86,254)" stroke-width="1" opacity="0.9921568627450981" d="M 60.5 57 L 63 58.5 L 61.5 58 L 60.5 57 Z " /><path fill="rgb(7,86,254)" stroke="rgb(7,86,254)" stroke-width="1" opacity="0.9921568627450981" d="M 60.5 59 L 62.5 62 L 60.5 59 Z " /><path fill="rgb(7,86,254)" stroke="rgb(7,86,254)" stroke-width="1" opacity="0.9921568627450981" d="M 31.5 60 L 34 60.5 L 32.5 63 L 31.5 60 Z " /><path fill="rgb(7,86,254)" stroke="rgb(7,86,254)" stroke-width="1" opacity="0.9921568627450981" d="M 48.5 61 L 49 62.5 L 47 63.5 L 48.5 61 Z " /><path fill="rgb(7,86,254)" stroke="rgb(7,86,254)" stroke-width="1" opacity="0.9921568627450981" d="M 70.5 64 Q 74.5 63.5 75 66.5 L 73 67 L 72.5 69 L 72 67 Q 66 65 68 71 L 71 71 Q 69.9 73.7 72.5 73 L 75 72 L 75 78.5 L 73.5 79 Q 69.2 80.8 72 82.5 L 73 85.5 L 73 89.5 Q 72.3 91.8 74.5 91 L 74.5 92 L 73 92.5 L 75 96.5 Q 72.8 97.7 74 102.5 L 72.5 104 L 70 104 Q 71.3 101 67.5 102 L 67.5 101 L 71 99.5 L 66 97.5 L 67.5 95 Q 64.5 95.9 66 91.5 L 67 90.5 L 64 87.5 L 66 83.5 L 65 81.5 L 65.5 80 L 64 79.5 L 67 79 L 66 74.5 L 67 71.5 L 65 68.5 L 68 66.5 L 67.5 65 Q 69 67.5 70.5 64 Z M 68 72 L 68 73 L 70 73 L 68 72 Z M 71 73 L 68 75 L 72 75 L 71 73 Z " /><path fill="rgb(7,86,254)" stroke="rgb(7,86,254)" stroke-width="1" opacity="0.9921568627450981" d="M 45.5 71 L 46 74.5 L 45 74.5 L 45.5 71 Z " /><path fill="rgb(7,86,254)" stroke="rgb(7,86,254)" stroke-width="1" opacity="0.9921568627450981" d="M 38.5 75 L 41 76.5 L 40 80 L 46 80.5 L 43 82 L 41.5 86 L 36 81.5 L 38 81 L 37 78.5 L 37.5 77 L 36 76.5 L 38.5 75 Z " /><path fill="rgb(7,86,254)" stroke="rgb(7,86,254)" stroke-width="1" opacity="0.8352941176470589" d="M 52.5 8 L 59 10 L 60 19.5 Q 56.3 21.3 59.5 23 L 60.5 21 L 61 24.5 L 58.5 23 Q 55.9 23.8 57 20.5 L 59 17.5 L 58 12 L 52.5 10 L 51 13 L 49 12.5 L 52.5 8 Z " /><path fill="rgb(7,86,254)" stroke="rgb(7,86,254)" stroke-width="1" opacity="0.8352941176470589" d="M 49.5 14 L 50 17 L 48 16.5 L 49.5 14 Z " /><path fill="rgb(7,86,254)" stroke="rgb(7,86,254)" stroke-width="1" opacity="0.8352941176470589" d="M 47.5 19 L 48 23.5 L 47 23.5 L 47.5 19 Z " /><path fill="rgb(7,86,254)" stroke="rgb(7,86,254)" stroke-width="1" opacity="0.8352941176470589" d="M 47.5 25 L 48 27.5 L 48.5 31 Q 49.7 28.7 51 31.5 L 48 32 Q 49.5 35.8 46.5 35 Q 48.1 36.8 45 38.5 L 46 43.5 L 43.5 52 L 43 49.5 L 44 48.5 L 45 32.5 L 47 29.5 L 46 26.5 L 47.5 25 Z " /><path fill="rgb(7,86,254)" stroke="rgb(7,86,254)" stroke-width="1" opacity="0.8352941176470589" d="M 60.5 26 L 62 28.5 L 61 28.5 L 60.5 26 Z " /><path fill="rgb(7,86,254)" stroke="rgb(7,86,254)" stroke-width="1" opacity="0.8352941176470589" d="M 80.5 26 Q 82.8 25.3 82 27.5 L 80.5 30 L 77 29.5 L 75 32.5 L 76 35.5 L 75 38.5 L 78 39.5 L 74 41.5 L 74.5 43 L 71 44.5 L 72 46.5 L 68.5 53 L 68 51.5 L 70 44.5 L 73 41.5 Q 72.3 35.8 75 33.5 L 75 31.5 Q 73.9 28.2 76.5 29 L 80.5 26 Z " /><path fill="rgb(7,86,254)" stroke="rgb(7,86,254)" stroke-width="1" opacity="0.8352941176470589" d="M 84.5 28 Q 86.8 27.3 86 29.5 L 84.5 28 Z " /><path fill="rgb(7,86,254)" stroke="rgb(7,86,254)" stroke-width="1" opacity="0.8352941176470589" d="M 61 31 Q 64 29.8 63 33.5 L 61 32.5 L 61 31 Z " /><path fill="rgb(7,86,254)" stroke="rgb(7,86,254)" stroke-width="1" opacity="0.8352941176470589" d="M 63.5 35 L 65 44 L 63 44.5 L 65 45 L 66 48.5 L 65 48.5 L 63.5 46 Q 60.5 46.9 62 42.5 L 61.5 41 L 63 40.5 L 63.5 35 Z " /><path fill="rgb(7,86,254)" stroke="rgb(7,86,254)" stroke-width="1" opacity="0.8352941176470589" d="M 87.5 36 L 90 52.5 L 89 52.5 L 88 49.5 L 88 47.5 L 87 40 L 83.5 41 L 83.5 38 L 87 39 L 87.5 36 Z " /><path fill="rgb(7,86,254)" stroke="rgb(7,86,254)" stroke-width="1" opacity="0.8352941176470589" d="M 54.5 38 L 58 39.5 L 56 40.5 L 58 41.5 L 55 42.5 L 58 44.5 L 57.5 46 L 61 46.5 L 59 47.5 L 63 49.5 L 60.5 50 L 59 49.5 Q 58.3 51.8 60.5 51 L 60.5 52 L 58 53.5 L 57.5 62 L 56 51.5 L 57 49.5 L 54.5 43 Q 55.1 47.6 52.5 49 L 53 47.5 L 54 42.5 L 52.5 42 L 50.5 43 L 50.5 42 L 54 40.5 Q 51.8 39.3 54.5 38 Z " /><path fill="rgb(7,86,254)" stroke="rgb(7,86,254)" stroke-width="1" opacity="0.8352941176470589" d="M 28.5 42 L 34 45.5 L 35 49.5 L 33 48.5 L 30.5 44 L 27 45.5 L 29 46.5 L 26.5 47 L 25 46.5 Q 24.3 48.8 26.5 48 L 27 50.5 L 26 52.5 L 27.5 53 L 34.5 51 L 36 54.5 Q 33 51.4 30 54.5 Q 31.1 57.8 28.5 57 L 28 59.5 L 29 67 L 32 67 Q 31 70 34 69 L 34 71.5 Q 30.5 72 31 76.5 L 33.5 81 L 36 82.5 Q 36.8 84.8 34.5 84 L 35 85.5 Q 34.4 88.3 40.5 87 L 42.5 87 L 45 85.5 L 47 78 L 45 77.5 L 48 77 L 48.5 74 L 49 77.5 L 45 88 Q 42.9 89.6 37.5 89 L 34 86.5 L 33 84.5 L 33 82.5 L 29 71.5 Q 32.7 69.8 29.5 68 Q 26.1 68.9 28 63.5 L 27 57 Q 23.3 55.5 24 58.5 L 21 63.5 L 22 65.5 Q 21.5 68.5 17.5 68 L 17.5 67 L 19 66.5 L 15 64.5 L 17 63.5 L 14 61.5 L 15 58 L 17 57.5 Q 14.7 56.3 17.5 55 L 25 53 L 25 49 Q 22 50.3 23 46.5 L 26 44.5 L 25.5 43 L 28.5 42 Z M 18 58 L 18 60 L 20 59 L 18 58 Z M 20 62 L 18 65 L 20 64 L 20 62 Z " /><path fill="rgb(7,86,254)" stroke="rgb(7,86,254)" stroke-width="1" opacity="0.8352941176470589" d="M 83.5 44 L 86 45.5 L 83 46.5 L 84 50.5 L 82 52.5 L 81.5 59 L 81 52.5 Q 83.2 51.3 80.5 50 L 77.5 52 L 81 47.5 L 80.5 46 L 82 46.5 L 83.5 44 Z " /><path fill="rgb(7,86,254)" stroke="rgb(7,86,254)" stroke-width="1" opacity="0.8352941176470589" d="M 97.5 47 Q 103.3 46.2 105 49.5 L 106 51.5 L 102.5 49 L 98 48 L 97.5 50 L 96 49.5 Q 95.3 51.8 97.5 51 L 97.5 52 L 95.5 51 L 93 55.5 L 93 59 Q 90.3 60.1 91 57.5 L 90 54.5 L 91 54.5 L 91.5 57 Q 92.9 50.4 97.5 47 Z " /><path fill="rgb(7,86,254)" stroke="rgb(7,86,254)" stroke-width="1" opacity="0.8352941176470589" d="M 52.5 51 L 53 55.5 L 52 55.5 L 52.5 51 Z " /><path fill="rgb(7,86,254)" stroke="rgb(7,86,254)" stroke-width="1" opacity="0.8352941176470589" d="M 109.5 51 Q 116.4 49 115 53 L 111.5 52 L 107.5 55 L 106.5 53 L 108 53.5 L 109.5 51 Z " /><path fill="rgb(7,86,254)" stroke="rgb(7,86,254)" stroke-width="1" opacity="0.8352941176470589" d="M 116.5 53 L 119 58.5 L 118 58.5 L 116.5 53 Z " /><path fill="rgb(7,86,254)" stroke="rgb(7,86,254)" stroke-width="1" opacity="0.8352941176470589" d="M 77.5 54 L 78 58.5 L 76.5 61 L 76 59.5 L 77.5 54 Z " /><path fill="rgb(7,86,254)" stroke="rgb(7,86,254)" stroke-width="1" opacity="0.8352941176470589" d="M 42.5 55 L 43 58.5 L 42 64 L 44 64.5 Q 41.2 66.3 45.5 68 L 48.5 70 L 51 60 L 45 59 Q 44 56 47 57 L 47.5 59 L 49.5 59 Q 51.8 59.8 51 57.5 L 52 57.5 L 49.5 73 L 47.5 70 L 43.5 71 L 44.5 68 L 40.5 71 L 40 68.5 L 43 66.5 L 41 66 L 42.5 55 Z " /><path fill="rgb(7,86,254)" stroke="rgb(7,86,254)" stroke-width="1" opacity="0.8352941176470589" d="M 65.5 55 L 69 56 L 68 59.5 L 68.5 61 L 64 59.5 L 66 59 L 65.5 55 Z " /><path fill="rgb(7,86,254)" stroke="rgb(7,86,254)" stroke-width="1" opacity="0.8352941176470589" d="M 31 56 L 33 56.5 L 32.5 59 L 31 56 Z " /><path fill="rgb(7,86,254)" stroke="rgb(7,86,254)" stroke-width="1" opacity="0.8352941176470589" d="M 95.5 58 L 97 58.5 L 94.5 60 L 95.5 58 Z " /><path fill="rgb(7,86,254)" stroke="rgb(7,86,254)" stroke-width="1" opacity="0.8352941176470589" d="M 72.5 59 L 71.5 61 L 72.5 59 Z " /><path fill="rgb(7,86,254)" stroke="rgb(7,86,254)" stroke-width="1" opacity="0.8352941176470589" d="M 36.5 60 L 35.5 62 L 36.5 60 Z " /><path fill="rgb(7,86,254)" stroke="rgb(7,86,254)" stroke-width="1" opacity="0.8352941176470589" d="M 119.5 60 L 121 63.5 L 120 63.5 L 119.5 60 Z " /><path fill="rgb(7,86,254)" stroke="rgb(7,86,254)" stroke-width="1" opacity="0.8352941176470589" d="M 81.5 62 Q 84.5 61.1 83 65.5 L 85.5 64 L 87 65.5 Q 87.9 68.5 83.5 67 L 83.5 68 L 87 68.5 L 84 69 L 85 74.5 L 84 77.5 L 83.5 81 L 83 68.5 L 82 67.5 L 82 65.5 L 81.5 62 Z " /><path fill="rgb(7,86,254)" stroke="rgb(7,86,254)" stroke-width="1" opacity="0.8352941176470589" d="M 35 63 Q 37.7 61.9 37 64.5 L 38 67.5 Q 38.8 69.8 36.5 69 L 35 69.5 L 36 65.5 L 35 63 Z " /><path fill="rgb(7,86,254)" stroke="rgb(7,86,254)" stroke-width="1" opacity="0.8352941176470589" d="M 58.5 63 L 63.5 67 L 65 66.5 Q 59.3 69.3 64.5 72 L 66 71.5 L 64.5 73 L 62 71.5 L 64.5 75 L 66 75.5 L 63.5 76 L 62 73 Q 57.5 74.8 59 69.5 L 58 66.5 L 58.5 63 Z M 61 66 L 60 68 L 62 69 L 61 66 Z M 60 70 L 60 72 L 62 71 L 60 70 Z " /><path fill="rgb(7,86,254)" stroke="rgb(7,86,254)" stroke-width="1" opacity="0.8352941176470589" d="M 76.5 63 L 77 67.5 L 75.5 70 L 75 68.5 L 76.5 63 Z " /><path fill="rgb(7,86,254)" stroke="rgb(7,86,254)" stroke-width="1" opacity="0.8352941176470589" d="M 100.5 64 Q 102.8 63.3 102 65.5 Q 103.8 68.8 108.5 69 L 112.5 67 L 113.5 70 L 115.5 69 Q 117.5 73 119.5 69 Q 122.1 69.8 121 66.5 L 122 66.5 Q 122.8 72.3 118.5 73 L 110.5 70 L 108.5 70 Q 103 71 102 67.5 L 100.5 65 L 99.5 67 L 99 65.5 L 100.5 64 Z " /><path fill="rgb(7,86,254)" stroke="rgb(7,86,254)" stroke-width="1" opacity="0.8352941176470589" d="M 37.5 70 L 43 73.5 L 40.5 75 L 37 71.5 L 37.5 70 Z " /><path fill="rgb(7,86,254)" stroke="rgb(7,86,254)" stroke-width="1" opacity="0.8352941176470589" d="M 76.5 71 L 77 73.5 L 76 73.5 L 76.5 71 Z " /><path fill="rgb(7,86,254)" stroke="rgb(7,86,254)" stroke-width="1" opacity="0.8352941176470589" d="M 97.5 73 L 98 74.5 L 96.5 78 L 96 75.5 L 97.5 73 Z " /><path fill="rgb(7,86,254)" stroke="rgb(7,86,254)" stroke-width="1" opacity="0.8352941176470589" d="M 59.5 74 L 61 77.5 L 62 79.5 Q 59.5 81 61 86.5 L 62 89 L 66 90.5 L 65 95.5 L 66 98.5 L 65.5 100 L 68 100.5 L 66 101.5 L 68 102 L 70.5 106 L 74 105 L 74.5 103 L 75 104.5 Q 73.6 107.6 68.5 107 L 68.5 105 L 65 102.5 L 64 99.5 L 65 96.5 L 63 96.5 L 64 94.5 L 60 87.5 L 60 79.5 L 59 78.5 L 59.5 74 Z " /><path fill="rgb(7,86,254)" stroke="rgb(7,86,254)" stroke-width="1" opacity="0.8352941176470589" d="M 75.5 80 L 76 83.5 L 75 83.5 L 74 81.5 L 75.5 80 Z " /><path fill="rgb(7,86,254)" stroke="rgb(7,86,254)" stroke-width="1" opacity="0.8352941176470589" d="M 84 82 Q 87 80.8 86 84.5 L 89.5 88 L 90.5 87 L 93.5 86 L 91.5 89 L 89.5 90 L 84 85.5 L 84 82 Z " /><path fill="rgb(7,86,254)" stroke="rgb(7,86,254)" stroke-width="1" opacity="0.8352941176470589" d="M 94.5 82 L 95 84.5 L 94 84.5 L 94.5 82 Z " /><path fill="rgb(7,86,254)" stroke="rgb(7,86,254)" stroke-width="1" opacity="0.8352941176470589" d="M 75.5 88 L 76 93.5 L 75 93.5 L 75.5 88 Z " /><path fill="rgb(7,86,254)" stroke="rgb(7,86,254)" stroke-width="1" opacity="0.8352941176470589" d="M 75.5 95 L 76 101.5 L 75 101.5 L 75.5 95 Z " /><path fill="rgb(6,86,254)" stroke="rgb(6,86,254)" stroke-width="1" opacity="0.9607843137254902" d="M 52.5 10 L 58 12.5 L 52.5 16 L 50 15.5 L 49 13.5 L 51.5 13 L 54 14 L 55 11.5 L 52.5 11 L 51 11.5 L 52.5 10 Z " /><path fill="rgb(6,86,254)" stroke="rgb(6,86,254)" stroke-width="1" opacity="0.9607843137254902" d="M 57.5 15 L 59 17.5 L 57 23 L 59 22.5 L 58.5 21 Q 60.8 20.3 60 22.5 L 59 23.5 L 61 25.5 L 60.5 28 L 58 26.5 L 60 25.5 L 55 22.5 Q 57.8 20.3 57.5 15 Z " /><path fill="rgb(6,86,254)" stroke="rgb(6,86,254)" stroke-width="1" opacity="0.9607843137254902" d="M 48.5 17 L 50 26 L 48 26.5 L 49 29 Q 51.7 27.9 51 30.5 L 48 30.5 L 47 26.5 L 48 23.5 L 48.5 17 Z " /><path fill="rgb(6,86,254)" stroke="rgb(6,86,254)" stroke-width="1" opacity="0.9607843137254902" d="M 82.5 27 Q 84.8 26.3 84 28.5 L 87 33.5 L 85 32.5 L 83.5 29 L 80.5 31 L 77 32 L 76 34.5 L 78 38.5 L 74.5 40 L 76 37.5 L 75 34.5 L 77 30.5 L 77.5 29 L 78.5 31 L 81 30 L 82.5 27 Z " /><path fill="rgb(6,86,254)" stroke="rgb(6,86,254)" stroke-width="1" opacity="0.9607843137254902" d="M 61.5 29 L 62 30.5 L 61 32.5 L 62.5 35 L 60 33.5 Q 59.3 29.8 61.5 29 Z " /><path fill="rgb(6,86,254)" stroke="rgb(6,86,254)" stroke-width="1" opacity="0.9607843137254902" d="M 48 32 L 52 32.5 L 51.5 34 L 53 34.5 L 51.5 35 L 49.5 35 L 46.5 36 L 46.5 35 Q 49.5 35.7 48 32 Z " /><path fill="rgb(6,86,254)" stroke="rgb(6,86,254)" stroke-width="1" opacity="0.9607843137254902" d="M 55.5 34 L 59.5 40 L 63 40.5 L 61 41.5 L 62 43.5 L 61 43.5 Q 61.8 41.3 59.5 42 L 60 43.5 Q 61.3 47.3 57.5 46 L 57.5 44 L 55 42.5 L 56.5 42 L 58 42.5 Q 58.8 40.3 56.5 41 L 54.5 40 L 52 41.5 L 54 42.5 L 53 47 L 46 48 L 45 55 L 48.5 56 L 52 55.5 L 51 59 L 45 57 Q 43.9 59.7 46.5 59 L 51 60 L 50.5 62 L 47.5 61 L 45.5 63 L 44.5 62 L 42 63.5 L 44 53.5 L 44 51.5 L 46 42.5 L 45 38.5 L 47 37.5 L 46 40 L 51.5 40 L 52 38.5 L 52.5 36 L 55.5 34 Z M 50 42 Q 51 45 49 44 L 50 46 Q 53 47 52 45 L 52 43 L 50 42 Z " /><path fill="rgb(6,86,254)" stroke="rgb(6,86,254)" stroke-width="1" opacity="0.9607843137254902" d="M 86.5 35 L 87 37.5 Q 85.5 40.5 84 37.5 Q 83.3 35.3 85.5 36 L 86.5 35 Z " /><path fill="rgb(6,86,254)" stroke="rgb(6,86,254)" stroke-width="1" opacity="0.9607843137254902" d="M 82.5 38 Q 83.6 40.8 87 40 L 89 48.5 L 89 50.5 L 90 53.5 L 88 54 L 88 50 L 86.5 50 L 84 51 L 83 59 L 86 59.5 L 86 61.5 L 85.5 63 L 84 62.5 L 85.5 65 L 87.5 65 Q 90.1 64.3 89 67 L 83.5 68 L 83.5 67 Q 87.9 68.5 87 65.5 L 83 65.5 L 82 52.5 Q 84.8 51.8 84 47.5 L 83.5 46 L 86 45.5 L 83.5 44 L 81 45.5 L 82 42.5 L 81 40 L 83 39.5 L 82.5 38 Z " /><path fill="rgb(6,86,254)" stroke="rgb(6,86,254)" stroke-width="1" opacity="0.9607843137254902" d="M 76 40 L 79 41.5 L 76 43.5 L 75 46.5 L 75.5 48 Q 71.3 47.3 70.5 50 L 70 48.5 Q 73.5 47 71 45.5 L 72.5 43 L 75 42.5 L 74.5 41 L 76 41.5 L 76 40 Z " /><path fill="rgb(6,86,254)" stroke="rgb(6,86,254)" stroke-width="1" opacity="0.9607843137254902" d="M 28.5 44 L 32 45.5 L 35 50.5 L 33.5 52 L 26.5 53 L 27.5 51 Q 32 52 33 49.5 L 30 48.5 L 30.5 47 L 27.5 49 L 26 49.5 L 26.5 48 Q 24.3 48.8 25 46.5 L 26.5 47 L 29 46.5 L 27 45.5 L 28.5 44 Z " /><path fill="rgb(6,86,254)" stroke="rgb(6,86,254)" stroke-width="1" opacity="0.9607843137254902" d="M 61.5 45 L 65 47.5 L 66 49.5 L 63 50.5 L 65 51.5 L 63.5 52 L 60.5 51 L 59 51.5 L 60 54.5 L 59.5 56 L 61 56.5 L 60 60.5 Q 61.2 63.8 65 63 L 63 59.5 L 63.5 57 L 65.5 56 L 66 59 L 64 59.5 L 68.5 61 L 69 58.5 L 68 55.5 L 69 52.5 L 69.5 51 L 71.5 51 L 74.5 50 L 74.5 51 L 73 51.5 L 74.5 54 Q 72.3 53.3 73 55.5 L 72 55.5 Q 73 51.8 70 53 L 70.5 58 L 72.5 57 L 74 61 L 71.5 60 L 71 62 L 74 63.5 L 73.5 65 L 72.5 63 L 70.5 63 L 67.5 65 L 65.5 65 Q 63.3 64.3 64 66.5 L 66 66.5 L 65 69.5 L 66 72.5 L 64.5 75 L 62 73.5 L 63.5 76 L 66.5 75 L 67 77 L 64 77 Q 65.5 80.7 62.5 80 L 60 76.5 L 60 74.5 Q 59.3 72.3 61.5 73 L 64 71.5 L 60 66.5 L 62 67.5 L 62.5 69 L 64 67.5 L 60.5 64 L 58 62.5 L 58 53.5 L 59 52.5 L 59 50.5 Q 59.8 48.3 57.5 49 L 57.5 48 L 61 47 L 61.5 45 Z M 62 47 L 60 48 L 61 50 L 64 49 L 62 47 Z " /><path fill="rgb(6,86,254)" stroke="rgb(6,86,254)" stroke-width="1" opacity="0.9607843137254902" d="M 79.5 47 L 81 47.5 L 78 49.5 L 79.5 47 Z " /><path fill="rgb(6,86,254)" stroke="rgb(6,86,254)" stroke-width="1" opacity="0.9607843137254902" d="M 51.5 48 L 52 53.5 L 51 53.5 L 50 51.5 L 51.5 48 Z " /><path fill="rgb(6,86,254)" stroke="rgb(6,86,254)" stroke-width="1" opacity="0.9607843137254902" d="M 98 48 L 103 49.5 L 101.5 50 L 99.5 49 L 96 51 L 95 56.5 L 97 57.5 L 95 58.5 L 97 59.5 L 91.5 62 L 89 60.5 L 91 59.5 L 89.5 57 L 88 57.5 L 89.5 55 L 91 59 Q 94.3 60.3 93 55.5 L 96.5 49 L 98 49.5 L 98 48 Z " /><path fill="rgb(6,86,254)" stroke="rgb(6,86,254)" stroke-width="1" opacity="0.9607843137254902" d="M 104.5 51 L 105.5 53 L 104.5 51 Z " /><path fill="rgb(6,86,254)" stroke="rgb(6,86,254)" stroke-width="1" opacity="0.9607843137254902" d="M 111.5 52 L 116 53 L 118 57.5 L 114.5 55 L 111.5 54 L 108 54.5 L 111.5 52 Z " /><path fill="rgb(6,86,254)" stroke="rgb(6,86,254)" stroke-width="1" opacity="0.9607843137254902" d="M 33.5 53 L 36 56.5 L 33 57.5 L 34 60 Q 36.7 61.1 36 58.5 L 37 58.5 L 35.5 61 L 33 59.5 L 32.5 58 L 30.5 61 Q 28.3 60.3 29 62.5 L 28 62.5 L 29 58.5 L 28.5 57 L 31.5 58 L 32.5 56 Q 29.2 57.1 30 54.5 Q 31.8 56.1 33.5 53 Z " /><path fill="rgb(6,86,254)" stroke="rgb(6,86,254)" stroke-width="1" opacity="0.9607843137254902" d="M 63.5 53 L 66 54.5 L 64.5 55 L 63.5 53 Z " /><path fill="rgb(6,86,254)" stroke="rgb(6,86,254)" stroke-width="1" opacity="0.9607843137254902" d="M 104.5 54 L 107 54.5 L 103.5 57 L 103.5 56 L 105 55.5 L 104.5 54 Z " /><path fill="rgb(6,86,254)" stroke="rgb(6,86,254)" stroke-width="1" opacity="0.9607843137254902" d="M 76.5 55 L 77 58.5 L 76 58.5 L 76.5 55 Z " /><path fill="rgb(6,86,254)" stroke="rgb(6,86,254)" stroke-width="1" opacity="0.9607843137254902" d="M 75.5 60 L 77 62.5 L 76 62.5 L 75.5 60 Z " /><path fill="rgb(6,86,254)" stroke="rgb(6,86,254)" stroke-width="1" opacity="0.9607843137254902" d="M 101.5 61 L 102 64 Q 104.7 62.9 104 65.5 Q 105.2 68 109 67 Q 110.3 70 106.5 69 L 102 65.5 Q 102.8 63.3 100.5 64 L 99 64.5 L 101.5 61 Z " /><path fill="rgb(6,86,254)" stroke="rgb(6,86,254)" stroke-width="1" opacity="0.9607843137254902" d="M 33.5 62 L 37 62.5 L 35 63 L 36 65.5 L 35 69.5 L 36.5 69 L 38 69.5 L 37 71.5 L 38.5 74 L 35 75 L 37 80.5 L 37 82.5 L 38 85.5 L 35 87 L 34 84.5 L 36 84 L 34.5 81 L 32 79.5 Q 34.5 78 31 76.5 L 32 73.5 L 31.5 72 L 34 72.5 L 34.5 75 L 36 72.5 L 34 69 Q 31 70 32 67 L 29 67 L 29 64 L 31.5 63 L 31 64.5 L 32.5 67 L 34 63.5 L 33.5 62 Z " /><path fill="rgb(6,86,254)" stroke="rgb(6,86,254)" stroke-width="1" opacity="0.9607843137254902" d="M 49.5 63 L 50 65.5 L 48 70.5 L 49 73.5 L 47.5 77 Q 45.8 74.3 44 78.5 Q 44.8 81.1 41.5 80 L 41.5 79 L 43 78.5 L 41 78 Q 40.3 74.6 43 73.5 L 41 70.5 L 45 67.5 Q 41.3 65.8 44.5 64 L 45.5 67 L 48 65.5 L 47.5 64 L 49.5 63 Z M 46 68 L 45 70 L 48 70 L 46 68 Z M 44 71 L 44 74 L 44 75 Q 47 76 48 74 Q 49 69 44 71 Z " /><path fill="rgb(6,86,254)" stroke="rgb(6,86,254)" stroke-width="1" opacity="0.9607843137254902" d="M 119.5 63 L 120.5 65 L 119.5 63 Z " /><path fill="rgb(6,86,254)" stroke="rgb(6,86,254)" stroke-width="1" opacity="0.9607843137254902" d="M 75.5 66 L 76 67.5 L 75 69.5 L 76 72 Q 71.5 72.8 69.5 70 L 68 70.5 L 69.5 67 L 72 68.5 Q 71.3 71.1 74 70 L 75.5 66 Z " /><path fill="rgb(6,86,254)" stroke="rgb(6,86,254)" stroke-width="1" opacity="0.9607843137254902" d="M 98.5 66 L 99 68.5 L 98 68.5 L 98.5 66 Z " /><path fill="rgb(6,86,254)" stroke="rgb(6,86,254)" stroke-width="1" opacity="0.9607843137254902" d="M 110 66 Q 113 65 112 68 Q 109 69 110 66 Z " /><path fill="rgb(6,86,254)" stroke="rgb(6,86,254)" stroke-width="1" opacity="0.9607843137254902" d="M 113.5 67 L 117 68.5 L 113.5 70 L 113.5 67 Z " /><path fill="rgb(6,86,254)" stroke="rgb(6,86,254)" stroke-width="1" opacity="0.9607843137254902" d="M 84 69 L 87 69.5 Q 84.3 70.6 85 74 L 87 74.5 L 85 79.5 Q 87.3 80.8 84.5 82 L 84 77.5 L 84 73.5 L 84 69 Z " /><path fill="rgb(6,86,254)" stroke="rgb(6,86,254)" stroke-width="1" opacity="0.9607843137254902" d="M 118.5 69 L 116.5 72 L 118.5 69 Z " /><path fill="rgb(6,86,254)" stroke="rgb(6,86,254)" stroke-width="1" opacity="0.9607843137254902" d="M 97.5 70 L 98 73 Q 95.3 74.1 96 71.5 L 97.5 70 Z " /><path fill="rgb(6,86,254)" stroke="rgb(6,86,254)" stroke-width="1" opacity="0.9607843137254902" d="M 70.5 73 L 71 75 L 69 74.5 L 70.5 73 Z " /><path fill="rgb(6,86,254)" stroke="rgb(6,86,254)" stroke-width="1" opacity="0.9607843137254902" d="M 75.5 73 L 76 76.5 L 75 76.5 L 75.5 73 Z " /><path fill="rgb(6,86,254)" stroke="rgb(6,86,254)" stroke-width="1" opacity="0.9607843137254902" d="M 95.5 77 L 96 78.5 L 94.5 82 L 94 79.5 L 95.5 77 Z " /><path fill="rgb(6,86,254)" stroke="rgb(6,86,254)" stroke-width="1" opacity="0.9607843137254902" d="M 46.5 79 L 47 80.5 L 45 86 L 41.5 88 L 39 87 L 39.5 85 L 42.5 86 L 46.5 79 Z " /><path fill="rgb(6,86,254)" stroke="rgb(6,86,254)" stroke-width="1" opacity="0.9607843137254902" d="M 61 81 L 63 81.5 L 62.5 83 L 64.5 82 L 65 84.5 L 64 87.5 L 64.5 89 Q 61.2 90.1 62 87.5 L 61 81 Z " /><path fill="rgb(6,86,254)" stroke="rgb(6,86,254)" stroke-width="1" opacity="0.9607843137254902" d="M 73.5 81 L 75 84 L 73 83.5 L 73.5 81 Z " /><path fill="rgb(6,86,254)" stroke="rgb(6,86,254)" stroke-width="1" opacity="0.9607843137254902" d="M 87.5 83 L 89 83.5 Q 86.8 84.8 89.5 86 L 93.5 85 L 92.5 87 L 89.5 88 L 86 84.5 L 87.5 83 Z " /><path fill="rgb(6,86,254)" stroke="rgb(6,86,254)" stroke-width="1" opacity="0.9607843137254902" d="M 74.5 85 L 75 90.5 L 73 89.5 Q 72.3 85.8 74.5 85 Z " /><path fill="rgb(6,86,254)" stroke="rgb(6,86,254)" stroke-width="1" opacity="0.9607843137254902" d="M 66.5 90 L 66 91.5 L 67 96.5 L 64 96.5 L 66.5 90 Z " /><path fill="rgb(6,86,254)" stroke="rgb(6,86,254)" stroke-width="1" opacity="0.9607843137254902" d="M 66.5 98 L 69.5 100 L 69.5 101 L 66.5 99 L 65 99.5 L 66.5 98 Z " /><path fill="rgb(6,86,254)" stroke="rgb(6,86,254)" stroke-width="1" opacity="0.9607843137254902" d="M 74.5 100 L 75 102.5 L 74 105 L 70.5 106 L 68 102.5 L 71.5 105 L 74 102.5 L 74.5 100 Z " /><path fill="rgb(7,87,254)" stroke="rgb(7,87,254)" stroke-width="1" opacity="0.984313725490196" d="M 52.5 11 Q 54.8 10.3 54 12.5 L 51 12.5 L 52.5 11 Z " /><path fill="rgb(7,87,254)" stroke="rgb(7,87,254)" stroke-width="1" opacity="0.984313725490196" d="M 55.5 13 L 56.5 15 L 57.5 13 L 58 14.5 L 54.5 17 L 55 15.5 L 55.5 13 Z " /><path fill="rgb(7,87,254)" stroke="rgb(7,87,254)" stroke-width="1" opacity="0.984313725490196" d="M 51.5 15 L 49.5 18 L 51.5 15 Z " /><path fill="rgb(7,87,254)" stroke="rgb(7,87,254)" stroke-width="1" opacity="0.984313725490196" d="M 54.5 22 L 55.5 24 L 54.5 22 Z " /><path fill="rgb(7,87,254)" stroke="rgb(7,87,254)" stroke-width="1" opacity="0.984313725490196" d="M 50.5 23 L 51 28 L 48 26.5 L 50 26.5 L 50.5 23 Z " /><path fill="rgb(7,87,254)" stroke="rgb(7,87,254)" stroke-width="1" opacity="0.984313725490196" d="M 57.5 25 L 58 27 L 61 28.5 L 59.5 32 Q 58.3 29.8 57 32.5 L 59 38.5 L 56 36.5 L 55 31.5 L 57 31.5 Q 57.8 29.3 55.5 30 L 56.5 28 L 58 27.5 L 56 26.5 L 57.5 25 Z " /><path fill="rgb(7,87,254)" stroke="rgb(7,87,254)" stroke-width="1" opacity="0.984313725490196" d="M 82 29 L 85 30.5 L 86 33.5 L 84.5 33 L 80 31.5 L 82 31 L 82 29 Z M 84 30 L 82 32 L 84 32 L 84 30 Z " /><path fill="rgb(7,87,254)" stroke="rgb(7,87,254)" stroke-width="1" opacity="0.984313725490196" d="M 77 32 Q 80 31 79 34 L 76.5 35 L 77 33.5 L 77 32 Z " /><path fill="rgb(7,87,254)" stroke="rgb(7,87,254)" stroke-width="1" opacity="0.984313725490196" d="M 59.5 33 L 60.5 35 L 59.5 33 Z " /><path fill="rgb(7,87,254)" stroke="rgb(7,87,254)" stroke-width="1" opacity="0.984313725490196" d="M 53.5 34 L 55 34.5 L 52 36.5 L 52.5 38 L 48.5 36 L 48.5 39 L 50 39.5 L 46 40 L 48.5 35 L 53.5 34 Z " /><path fill="rgb(7,87,254)" stroke="rgb(7,87,254)" stroke-width="1" opacity="0.984313725490196" d="M 62.5 38 L 63 40 L 60 39.5 L 62.5 38 Z " /><path fill="rgb(7,87,254)" stroke="rgb(7,87,254)" stroke-width="1" opacity="0.984313725490196" d="M 59.5 42 Q 61.8 41.3 61 43.5 Q 63.3 44.7 60.5 46 L 59.5 42 Z " /><path fill="rgb(7,87,254)" stroke="rgb(7,87,254)" stroke-width="1" opacity="0.984313725490196" d="M 77.5 42 L 77 43.5 L 76.5 46 L 76 43.5 L 77.5 42 Z " /><path fill="rgb(7,87,254)" stroke="rgb(7,87,254)" stroke-width="1" opacity="0.984313725490196" d="M 81.5 42 L 82 43.5 L 78.5 48 L 80 45.5 L 81.5 42 Z " /><path fill="rgb(7,87,254)" stroke="rgb(7,87,254)" stroke-width="1" opacity="0.984313725490196" d="M 49.5 47 L 53 47.5 L 51 48 L 50 51.5 L 50.5 53 Q 48.3 53.8 49 51.5 L 50 49 L 47.5 50 L 46.5 48 L 49.5 47 Z " /><path fill="rgb(7,87,254)" stroke="rgb(7,87,254)" stroke-width="1" opacity="0.984313725490196" d="M 61.5 47 L 65 49.5 Q 65.8 51.8 63.5 51 L 63.5 52 L 66 52.5 L 63 53.5 L 65 57 L 63 57.5 L 65 61.5 Q 65.8 64.1 62.5 63 L 60 60.5 L 60.5 58 L 62 57.5 L 59 55.5 L 62 53.5 L 60 52.5 L 64 49.5 L 60 48.5 L 61.5 47 Z " /><path fill="rgb(7,87,254)" stroke="rgb(7,87,254)" stroke-width="1" opacity="0.984313725490196" d="M 29.5 48 L 29.5 51 Q 25.8 52 27 49 L 29.5 48 Z " /><path fill="rgb(7,87,254)" stroke="rgb(7,87,254)" stroke-width="1" opacity="0.984313725490196" d="M 31 49 L 33 49.5 L 31 50.5 L 31 49 Z " /><path fill="rgb(7,87,254)" stroke="rgb(7,87,254)" stroke-width="1" opacity="0.984313725490196" d="M 85.5 49 L 88.5 54 L 90 54.5 L 88 57.5 L 91 59.5 L 89.5 59 L 87.5 58 L 85 59 L 85.5 57 L 87 57.5 L 88 54.5 L 86 52.5 L 87 51.5 L 85.5 49 Z " /><path fill="rgb(7,87,254)" stroke="rgb(7,87,254)" stroke-width="1" opacity="0.984313725490196" d="M 99.5 49 L 104 50 L 106 53.5 L 104 54.5 Q 105.3 57.2 106.5 55 L 109.5 54 L 108.5 56 L 105.5 57 Q 102 55.7 103 51 L 99 50 L 96.5 54 L 96 52 Q 98.7 53.1 98 50.5 L 99.5 49 Z " /><path fill="rgb(7,87,254)" stroke="rgb(7,87,254)" stroke-width="1" opacity="0.984313725490196" d="M 70 50 L 74.5 51 L 78 50.5 L 76.5 55 L 71.5 51 L 70 51.5 L 70 50 Z " /><path fill="rgb(7,87,254)" stroke="rgb(7,87,254)" stroke-width="1" opacity="0.984313725490196" d="M 45.5 51 L 49 55.5 L 47.5 55 Q 42.8 56.2 45.5 51 Z " /><path fill="rgb(7,87,254)" stroke="rgb(7,87,254)" stroke-width="1" opacity="0.984313725490196" d="M 70 53 Q 73 51.8 72 55.5 L 70 56.5 L 70 53 Z " /><path fill="rgb(7,87,254)" stroke="rgb(7,87,254)" stroke-width="1" opacity="0.984313725490196" d="M 51.5 54 L 50.5 56 L 51.5 54 Z " /><path fill="rgb(7,87,254)" stroke="rgb(7,87,254)" stroke-width="1" opacity="0.984313725490196" d="M 111.5 54 L 115 55.5 L 113.5 56 L 111.5 54 Z " /><path fill="rgb(7,87,254)" stroke="rgb(7,87,254)" stroke-width="1" opacity="0.984313725490196" d="M 75.5 56 L 75 57.5 L 76 59.5 L 75.5 62 L 74 62.5 L 76 63.5 L 75.5 66 Q 72.9 66.8 74 63.5 L 72 63.5 L 72.5 62 L 71 61.5 L 74 61 Q 73 57.2 75.5 56 Z " /><path fill="rgb(7,87,254)" stroke="rgb(7,87,254)" stroke-width="1" opacity="0.984313725490196" d="M 35.5 57 L 36 60 L 34 59.5 L 35.5 57 Z " /><path fill="rgb(7,87,254)" stroke="rgb(7,87,254)" stroke-width="1" opacity="0.984313725490196" d="M 97.5 58 L 99 62 L 97 61.5 L 97 59.5 L 97.5 58 Z " /><path fill="rgb(7,87,254)" stroke="rgb(7,87,254)" stroke-width="1" opacity="0.984313725490196" d="M 117.5 58 L 120 62.5 L 118 61.5 L 117.5 58 Z " /><path fill="rgb(7,87,254)" stroke="rgb(7,87,254)" stroke-width="1" opacity="0.984313725490196" d="M 43.5 60 L 46.5 62 L 48 61.5 L 47 64.5 Q 49.3 65.8 46.5 67 L 44 65.5 L 44.5 64 L 43 63.5 L 46 62.5 L 43.5 60 Z " /><path fill="rgb(7,87,254)" stroke="rgb(7,87,254)" stroke-width="1" opacity="0.984313725490196" d="M 29 61 L 32 61 Q 30.9 63.7 33.5 63 L 33 64.5 Q 33.7 67.1 31 66 Q 32 63 29 64 L 29 61 Z " /><path fill="rgb(7,87,254)" stroke="rgb(7,87,254)" stroke-width="1" opacity="0.984313725490196" d="M 49.5 61 L 50 62.5 L 48 63.5 L 49.5 61 Z " /><path fill="rgb(7,87,254)" stroke="rgb(7,87,254)" stroke-width="1" opacity="0.984313725490196" d="M 83.5 61 L 85.5 64 Q 83.3 64.8 84 62.5 L 83.5 61 Z " /><path fill="rgb(7,87,254)" stroke="rgb(7,87,254)" stroke-width="1" opacity="0.984313725490196" d="M 89.5 61 L 93 62 Q 94 65 91 64 Q 92.1 61.3 89.5 62 L 89.5 61 Z " /><path fill="rgb(7,87,254)" stroke="rgb(7,87,254)" stroke-width="1" opacity="0.984313725490196" d="M 102 61 L 104 61.5 L 102.5 64 L 102 61 Z " /><path fill="rgb(7,87,254)" stroke="rgb(7,87,254)" stroke-width="1" opacity="0.984313725490196" d="M 69 63 L 71 63.5 Q 66.7 65.8 68.5 68 L 64 65.5 L 66.5 65 Q 67.8 67.3 69 64.5 L 69 63 Z " /><path fill="rgb(7,87,254)" stroke="rgb(7,87,254)" stroke-width="1" opacity="0.984313725490196" d="M 87.5 63 L 88.5 65 Q 85.7 65.7 87.5 63 Z " /><path fill="rgb(7,87,254)" stroke="rgb(7,87,254)" stroke-width="1" opacity="0.984313725490196" d="M 105.5 65 L 110 66 L 109.5 68 L 105.5 65 Z " /><path fill="rgb(7,87,254)" stroke="rgb(7,87,254)" stroke-width="1" opacity="0.984313725490196" d="M 89.5 66 L 87.5 69 L 89.5 66 Z " /><path fill="rgb(7,87,254)" stroke="rgb(7,87,254)" stroke-width="1" opacity="0.984313725490196" d="M 113.5 66 L 118.5 68 L 120 67.5 Q 120.8 69.8 118.5 69 L 116.5 70 L 116.5 68 Q 112.8 67.8 113.5 66 Z " /><path fill="rgb(7,87,254)" stroke="rgb(7,87,254)" stroke-width="1" opacity="0.984313725490196" d="M 73.5 67 L 74 70 L 72 69.5 L 73.5 67 Z " /><path fill="rgb(7,87,254)" stroke="rgb(7,87,254)" stroke-width="1" opacity="0.984313725490196" d="M 65.5 69 L 67 71.5 L 66 71.5 L 65.5 69 Z " /><path fill="rgb(7,87,254)" stroke="rgb(7,87,254)" stroke-width="1" opacity="0.984313725490196" d="M 68.5 69 L 69.5 71 L 68.5 69 Z " /><path fill="rgb(7,87,254)" stroke="rgb(7,87,254)" stroke-width="1" opacity="0.984313725490196" d="M 34.5 71 L 36 73.5 L 35.5 75 L 39.5 74 L 40.5 76 L 38.5 75 L 36 76.5 L 39 78.5 L 37.5 81 L 37 79.5 L 37.5 78 L 35 76.5 L 34.5 71 Z " /><path fill="rgb(7,87,254)" stroke="rgb(7,87,254)" stroke-width="1" opacity="0.984313725490196" d="M 44.5 71 L 45 75 L 43 74.5 L 44.5 71 Z " /><path fill="rgb(7,87,254)" stroke="rgb(7,87,254)" stroke-width="1" opacity="0.984313725490196" d="M 46 71 L 48 71.5 L 46.5 75 L 46 71 Z " /><path fill="rgb(7,87,254)" stroke="rgb(7,87,254)" stroke-width="1" opacity="0.984313725490196" d="M 71.5 71 L 72.5 73 Q 69.7 73.7 71.5 71 Z " /><path fill="rgb(7,87,254)" stroke="rgb(7,87,254)" stroke-width="1" opacity="0.984313725490196" d="M 66.5 73 L 65.5 75 L 66.5 73 Z " /><path fill="rgb(7,87,254)" stroke="rgb(7,87,254)" stroke-width="1" opacity="0.984313725490196" d="M 86.5 76 L 88 79.5 Q 86.5 82.5 85 79.5 L 86.5 76 Z " /><path fill="rgb(7,87,254)" stroke="rgb(7,87,254)" stroke-width="1" opacity="0.984313725490196" d="M 40.5 77 L 41 79.5 L 40 79.5 L 40.5 77 Z " /><path fill="rgb(7,87,254)" stroke="rgb(7,87,254)" stroke-width="1" opacity="0.984313725490196" d="M 64.5 77 L 67 77.5 Q 67.7 80.5 64 79 L 64.5 77 Z " /><path fill="rgb(7,87,254)" stroke="rgb(7,87,254)" stroke-width="1" opacity="0.984313725490196" d="M 44 78 L 47 78.5 L 44 80 L 44 78 Z " /><path fill="rgb(7,87,254)" stroke="rgb(7,87,254)" stroke-width="1" opacity="0.984313725490196" d="M 34.5 79 L 35.5 81 L 34.5 79 Z " /><path fill="rgb(7,87,254)" stroke="rgb(7,87,254)" stroke-width="1" opacity="0.984313725490196" d="M 73.5 79 Q 76.1 78.3 75 81 L 73 81.5 L 73.5 84 L 75 84.5 L 72 86.5 L 72 84.5 L 71 81.5 L 73.5 79 Z " /><path fill="rgb(7,87,254)" stroke="rgb(7,87,254)" stroke-width="1" opacity="0.984313725490196" d="M 61.5 80 L 66 80.5 L 62.5 83 L 62.5 81 L 61.5 80 Z " /><path fill="rgb(7,87,254)" stroke="rgb(7,87,254)" stroke-width="1" opacity="0.984313725490196" d="M 43 82 L 45 82.5 L 43 85.5 L 43.5 87 Q 40.8 85.8 43 84.5 L 43 82 Z " /><path fill="rgb(7,87,254)" stroke="rgb(7,87,254)" stroke-width="1" opacity="0.984313725490196" d="M 37.5 83 L 39 86.5 L 38 86.5 L 37.5 83 Z " /><path fill="rgb(7,87,254)" stroke="rgb(7,87,254)" stroke-width="1" opacity="0.984313725490196" d="M 93.5 83 L 94 84.5 L 92 85.5 L 93.5 83 Z " /><path fill="rgb(7,87,254)" stroke="rgb(7,87,254)" stroke-width="1" opacity="0.984313725490196" d="M 73.5 92 L 74.5 94 L 73.5 92 Z " /><path fill="rgb(7,87,254)" stroke="rgb(7,87,254)" stroke-width="1" opacity="0.984313725490196" d="M 68.5 99 L 71 99.5 L 68.5 100 L 68.5 99 Z " /><path fill="rgb(8,86,254)" stroke="rgb(8,86,254)" stroke-width="1" opacity="0.33725490196078434" d="M 53.5 6 L 60 9.5 Q 58.7 14.2 61 15.5 L 61 17.5 L 63 30.5 L 62 30.5 L 61 21 L 59 20.5 L 60 17.5 L 59 16.5 L 59 10 L 52.5 8 L 49 12.5 L 47.5 19 L 47 15.5 L 50 8 L 53.5 6 Z " /><path fill="rgb(8,86,254)" stroke="rgb(8,86,254)" stroke-width="1" opacity="0.33725490196078434" d="M 46.5 20 L 47 25.5 L 46 25.5 L 46.5 20 Z " /><path fill="rgb(8,86,254)" stroke="rgb(8,86,254)" stroke-width="1" opacity="0.33725490196078434" d="M 77.5 25 Q 82.9 24.4 85 26 L 84.5 28 L 80.5 26 L 75 29 L 74 32.5 L 74 34.5 L 73 41.5 L 69 47.5 L 68 56 Q 64.5 57.1 66 49.5 L 67 49.5 L 67.5 51 L 71 41.5 L 72 34.5 L 77.5 25 Z " /><path fill="rgb(8,86,254)" stroke="rgb(8,86,254)" stroke-width="1" opacity="0.33725490196078434" d="M 45 27 L 47 27.5 L 46 30.5 L 44.5 38 L 44 32.5 L 45 29.5 L 45 27 Z " /><path fill="rgb(8,86,254)" stroke="rgb(8,86,254)" stroke-width="1" opacity="0.33725490196078434" d="M 86.5 28 L 87 30.5 L 86 30.5 L 86.5 28 Z " /><path fill="rgb(8,86,254)" stroke="rgb(8,86,254)" stroke-width="1" opacity="0.33725490196078434" d="M 87.5 32 L 88 35.5 L 87 35.5 L 87.5 32 Z " /><path fill="rgb(8,86,254)" stroke="rgb(8,86,254)" stroke-width="1" opacity="0.33725490196078434" d="M 64.5 38 L 66 46.5 L 65 46.5 L 64.5 38 Z " /><path fill="rgb(8,86,254)" stroke="rgb(8,86,254)" stroke-width="1" opacity="0.33725490196078434" d="M 27.5 40 L 35 43.5 Q 34.3 50.2 37 53.5 L 35 54 L 34 45.5 L 31.5 43 L 28.5 42 L 25 43.5 L 25.5 45 L 23 46.5 Q 22 50.3 25 49 L 25 53 Q 18.8 52.2 16 56.5 L 16.5 58 Q 13.9 57.2 15 60.5 L 14.5 62 L 17.5 64 L 20 62.5 L 18.5 65 L 17 65.5 L 19 66.5 L 17 67.5 L 19.5 68 L 22 64.5 L 21 62.5 L 24 57 Q 28.9 55.4 27 61 L 24 62.5 L 23 65.5 Q 25.5 67 22 68.5 L 24 70.5 L 22.5 72 L 17.5 74 L 13 71 L 11 66.5 L 12 63.5 Q 12.9 55.9 17.5 52 L 19 51.5 L 18.5 50 Q 21.1 50.8 20 47.5 L 23 43 L 25 43 Q 23.9 40.3 26.5 41 L 27.5 40 Z " /><path fill="rgb(8,86,254)" stroke="rgb(8,86,254)" stroke-width="1" opacity="0.33725490196078434" d="M 43.5 42 L 44 48.5 L 41.5 59 L 41 55.5 L 43.5 42 Z " /><path fill="rgb(8,86,254)" stroke="rgb(8,86,254)" stroke-width="1" opacity="0.33725490196078434" d="M 54.5 43 L 57 50.5 L 56 52.5 Q 58.7 54.3 57 60.5 L 56 60.5 L 55 50.5 L 55 48.5 L 54.5 43 Z " /><path fill="rgb(8,86,254)" stroke="rgb(8,86,254)" stroke-width="1" opacity="0.33725490196078434" d="M 89.5 44 L 90 46.5 L 89 46.5 L 89.5 44 Z " /><path fill="rgb(8,86,254)" stroke="rgb(8,86,254)" stroke-width="1" opacity="0.33725490196078434" d="M 99.5 45 L 106 48.5 L 104.5 49 Q 102.8 46.2 97.5 47 Q 92.9 50.4 91.5 57 L 91 55.5 L 92 51.5 L 95.5 47 L 99.5 45 Z " /><path fill="rgb(8,86,254)" stroke="rgb(8,86,254)" stroke-width="1" opacity="0.33725490196078434" d="M 53.5 48 L 54 55.5 L 52.5 61 L 52 56.5 L 53 51.5 L 52 49.5 L 53.5 48 Z " /><path fill="rgb(8,86,254)" stroke="rgb(8,86,254)" stroke-width="1" opacity="0.33725490196078434" d="M 90.5 49 L 91 53.5 L 90 53.5 L 90.5 49 Z " /><path fill="rgb(8,86,254)" stroke="rgb(8,86,254)" stroke-width="1" opacity="0.33725490196078434" d="M 110.5 49 L 118 52.5 L 117.5 54 L 115 53 Q 116.4 49 109.5 51 L 107.5 54 L 105 50.5 L 106.5 51 L 110.5 49 Z " /><path fill="rgb(8,86,254)" stroke="rgb(8,86,254)" stroke-width="1" opacity="0.33725490196078434" d="M 79 50 L 81.5 51 L 83 50.5 Q 79.5 52 81 58.5 L 81.5 60 L 80 58.5 L 79.5 52 L 78.5 58 L 78 52.5 L 79 50 Z " /><path fill="rgb(8,86,254)" stroke="rgb(8,86,254)" stroke-width="1" opacity="0.33725490196078434" d="M 118.5 55 L 121 60.5 L 119 59.5 L 118.5 55 Z " /><path fill="rgb(8,86,254)" stroke="rgb(8,86,254)" stroke-width="1" opacity="0.33725490196078434" d="M 18 58 L 20 58.5 L 18 59.5 L 18 58 Z " /><path fill="rgb(8,86,254)" stroke="rgb(8,86,254)" stroke-width="1" opacity="0.33725490196078434" d="M 77.5 59 L 78 66.5 L 77 66.5 L 77.5 59 Z " /><path fill="rgb(8,86,254)" stroke="rgb(8,86,254)" stroke-width="1" opacity="0.33725490196078434" d="M 37.5 60 L 39 65.5 L 38.5 67 Q 41.5 67.5 40 60.5 L 41 60.5 Q 39.8 66.6 42.5 66 L 42.5 67 L 41 67.5 L 41.5 69 L 40 68.5 L 41 71.5 L 39.5 72 L 37 66.5 L 37 64.5 L 36 61.5 L 37.5 60 Z " /><path fill="rgb(8,86,254)" stroke="rgb(8,86,254)" stroke-width="1" opacity="0.33725490196078434" d="M 26.5 62 Q 29.3 63.4 28 68 L 31 69.5 L 29 72.5 L 30 75.5 L 29 75.5 L 26.5 62 Z " /><path fill="rgb(8,86,254)" stroke="rgb(8,86,254)" stroke-width="1" opacity="0.33725490196078434" d="M 51.5 62 L 52 64.5 L 51 64.5 L 51.5 62 Z " /><path fill="rgb(8,86,254)" stroke="rgb(8,86,254)" stroke-width="1" opacity="0.33725490196078434" d="M 57.5 62 L 59 67.5 L 59 69.5 L 60 73.5 L 59.5 76 Q 56.5 76.5 58 69.5 L 57 66.5 L 57.5 62 Z " /><path fill="rgb(8,86,254)" stroke="rgb(8,86,254)" stroke-width="1" opacity="0.33725490196078434" d="M 121.5 62 L 122 65.5 L 121 65.5 L 121.5 62 Z " /><path fill="rgb(8,86,254)" stroke="rgb(8,86,254)" stroke-width="1" opacity="0.33725490196078434" d="M 81.5 63 L 83 66.5 L 81 65.5 L 81.5 63 Z " /><path fill="rgb(8,86,254)" stroke="rgb(8,86,254)" stroke-width="1" opacity="0.33725490196078434" d="M 100.5 65 L 101.5 67 L 100.5 65 Z " /><path fill="rgb(8,86,254)" stroke="rgb(8,86,254)" stroke-width="1" opacity="0.33725490196078434" d="M 50.5 67 L 51 72.5 L 49.5 76 L 49 73.5 L 50.5 67 Z " /><path fill="rgb(8,86,254)" stroke="rgb(8,86,254)" stroke-width="1" opacity="0.33725490196078434" d="M 99.5 67 L 100 69.5 L 99 69.5 L 99.5 67 Z " /><path fill="rgb(8,86,254)" stroke="rgb(8,86,254)" stroke-width="1" opacity="0.33725490196078434" d="M 122.5 67 L 123 69.5 L 118.5 75 L 115.5 75 L 110.5 71 L 107.5 73 L 102 68.5 L 104.5 70 L 109.5 71 L 112.5 70 L 118.5 73 L 122.5 67 Z " /><path fill="rgb(8,86,254)" stroke="rgb(8,86,254)" stroke-width="1" opacity="0.33725490196078434" d="M 76.5 68 L 77 70.5 L 76 70.5 L 76.5 68 Z " /><path fill="rgb(8,86,254)" stroke="rgb(8,86,254)" stroke-width="1" opacity="0.33725490196078434" d="M 82.5 68 L 83 74.5 L 82 74.5 L 82.5 68 Z " /><path fill="rgb(8,86,254)" stroke="rgb(8,86,254)" stroke-width="1" opacity="0.33725490196078434" d="M 60.5 70 L 63 71.5 L 61.5 71 L 60.5 70 Z " /><path fill="rgb(8,86,254)" stroke="rgb(8,86,254)" stroke-width="1" opacity="0.33725490196078434" d="M 98.5 71 L 99 73.5 L 98 73.5 L 98.5 71 Z " /><path fill="rgb(8,86,254)" stroke="rgb(8,86,254)" stroke-width="1" opacity="0.33725490196078434" d="M 97.5 75 L 98 77.5 L 96.5 80 L 96 78.5 L 97.5 75 Z " /><path fill="rgb(8,86,254)" stroke="rgb(8,86,254)" stroke-width="1" opacity="0.33725490196078434" d="M 30.5 77 L 34 83.5 L 33.5 86 L 30 79.5 L 30.5 77 Z " /><path fill="rgb(8,86,254)" stroke="rgb(8,86,254)" stroke-width="1" opacity="0.33725490196078434" d="M 48.5 78 L 49 80.5 L 43.5 90 L 39.5 91 L 35 88.5 L 36.5 88 Q 37.8 90.3 42.5 89 L 45 88 L 48.5 78 Z " /><path fill="rgb(8,86,254)" stroke="rgb(8,86,254)" stroke-width="1" opacity="0.33725490196078434" d="M 76.5 78 L 77 82.5 L 76 82.5 L 76.5 78 Z " /><path fill="rgb(8,86,254)" stroke="rgb(8,86,254)" stroke-width="1" opacity="0.33725490196078434" d="M 59.5 79 L 60 87.5 L 64 95.5 L 63.5 97 Q 65.8 96.3 65 98.5 L 64 100.5 L 67.5 105 L 69 105.5 L 68.5 107 Q 73.6 107.6 75 104.5 L 75.5 102 L 76 104.5 L 75 107 L 68.5 109 Q 63.5 105.5 62 98.5 L 62 96.5 L 59 87.5 L 59.5 79 Z " /><path fill="rgb(8,86,254)" stroke="rgb(8,86,254)" stroke-width="1" opacity="0.33725490196078434" d="M 83.5 81 Q 83.1 87.4 87.5 89 L 89.5 90 L 94 86.5 L 95.5 81 L 96 84.5 L 94 89 L 90.5 91 L 87.5 91 Q 81.1 89.1 83.5 81 Z " /></svg>