<svg width="128" height="128" version="1.1" xmlns="http://www.w3.org/2000/svg" desc="Created with imagetracer.js version 1.2.6" ><path fill="rgb(0,0,0)" stroke="rgb(0,0,0)" stroke-width="1" opacity="0" d="M 0 0 L 85 0.5 L 79 3.5 L 73 14.5 L 72 22.5 L 77.5 27 L 81 25 L 81 23 Q 83.7 24.1 83 21.5 Q 85 14.5 90 10.5 L 90 4.5 L 87 0 L 127.5 0 L 128 0.5 L 128 128 L 0 128 L 0 0 Z M 61 10 L 56 15 L 56 19 L 51 29 L 50 34 L 45 44 L 42 47 L 40 50 Q 35 56 26 58 L 24 57 L 14 59 L 13 62 L 14 64 L 13 68 L 16 70 L 20 71 L 22 70 L 29 71 L 38 79 L 43 85 L 48 94 L 48 97 L 55 115 Q 56 119 63 118 L 67 114 L 68 101 L 78 83 L 93 73 L 106 70 L 111 67 L 111 61 Q 108 61 109 58 Q 104 59 103 55 L 95 56 L 93 56 L 75 48 L 68 34 L 68 15 Q 66 10 61 10 Z M 101 10 Q 99 13 98 11 L 90 19 Q 91 21 89 20 Q 86 21 88 23 L 86 23 L 85 26 L 86 29 L 89 31 L 94 32 L 102 25 L 104 25 L 107 19 L 107 15 L 103 10 L 101 10 Z M 113 28 Q 108 33 99 34 Q 95 36 95 42 L 101 46 L 108 43 L 115 42 L 120 39 L 121 36 L 120 31 L 113 28 Z " /><path fill="rgb(0,0,0)" stroke="rgb(0,0,0)" stroke-width="1" opacity="0" d="M 58 42 Q 60.7 40.9 60 43.5 L 65 54 Q 67.7 52.9 67 55.5 L 72.5 60 L 84 65.5 Q 74.1 69.6 68 77.5 L 61 90 Q 58.3 91.1 59 88.5 L 52 76 L 49 74.5 L 49 73 L 47 73 Q 48.1 70.3 45.5 71 L 40 64 L 45 62 Q 43.9 59.3 46.5 60 L 51 53 Q 53.7 54.1 53 51.5 L 56 48.5 L 58 42 Z " /><path fill="rgb(7,86,254)" stroke="rgb(7,86,254)" stroke-width="1" opacity="0.7333333333333333" d="M 83.5 2 L 86 2 Q 84.9 4.7 87.5 4 L 87.5 5 L 83.5 3 L 80 5.5 L 79.5 7 L 79 5.5 L 80 3 L 83.5 2 Z " /><path fill="rgb(7,86,254)" stroke="rgb(7,86,254)" stroke-width="1" opacity="0.7333333333333333" d="M 82.5 5 L 88 6 L 89 8.5 L 80.5 23 Q 77.9 23.7 79 21 L 82 20.5 L 80 20 Q 81.1 17.3 78.5 18 L 78.5 17 L 83 18 L 87 8.5 Q 85.8 5.8 84.5 8 Q 82.3 8.8 83 6.5 L 82.5 5 Z " /><path fill="rgb(7,86,254)" stroke="rgb(7,86,254)" stroke-width="1" opacity="0.7333333333333333" d="M 77.5 8 L 78 10.5 L 76.5 13 L 76 11.5 L 77.5 8 Z " /><path fill="rgb(7,86,254)" stroke="rgb(7,86,254)" stroke-width="1" opacity="0.7333333333333333" d="M 60.5 11 L 67 15.5 L 63.5 13 L 60.5 12 L 59 15 L 57 14.5 L 60.5 11 Z " /><path fill="rgb(7,86,254)" stroke="rgb(7,86,254)" stroke-width="1" opacity="0.7333333333333333" d="M 98.5 12 L 101 12 Q 99.9 14.7 102.5 14 L 102.5 12 L 105 13.5 L 103 14.5 L 105 15.5 L 104.5 17 Q 107.1 16.2 106 19.5 L 103 21 L 95.5 30 Q 90.1 30.6 88 29 L 87 26.5 L 88.5 21 L 90 24.5 L 89 27 L 95.5 29 L 99 24 L 102 22.5 Q 102.8 20.3 100.5 21 L 100.5 20 L 102.5 21 L 103 19.5 L 101 15.5 L 101 14 L 96 14 L 95.5 16 L 95 14.5 L 98.5 12 Z " /><path fill="rgb(7,86,254)" stroke="rgb(7,86,254)" stroke-width="1" opacity="0.7333333333333333" d="M 74.5 14 L 75.5 16 Q 72.7 16.7 74.5 14 Z " /><path fill="rgb(7,86,254)" stroke="rgb(7,86,254)" stroke-width="1" opacity="0.7333333333333333" d="M 93.5 16 L 92.5 18 L 93.5 16 Z " /><path fill="rgb(7,86,254)" stroke="rgb(7,86,254)" stroke-width="1" opacity="0.7333333333333333" d="M 73.5 17 L 75.5 22 L 78 23.5 L 74.5 24 Q 71.4 22.4 73.5 17 Z " /><path fill="rgb(7,86,254)" stroke="rgb(7,86,254)" stroke-width="1" opacity="0.7333333333333333" d="M 67.5 18 L 68 22.5 L 67 22.5 L 67.5 18 Z " /><path fill="rgb(7,86,254)" stroke="rgb(7,86,254)" stroke-width="1" opacity="0.7333333333333333" d="M 55 21 L 57 21.5 L 54 23.5 L 55 21 Z " /><path fill="rgb(7,86,254)" stroke="rgb(7,86,254)" stroke-width="1" opacity="0.7333333333333333" d="M 53.5 26 L 54 27.5 L 52 28.5 L 53.5 26 Z " /><path fill="rgb(7,86,254)" stroke="rgb(7,86,254)" stroke-width="1" opacity="0.7333333333333333" d="M 112.5 30 Q 118 29 119 32.5 L 120 35.5 L 119 39 L 112.5 42 L 113.5 40 L 118 37.5 L 114 36.5 L 116 35.5 L 115 33 L 109 31.5 L 112.5 30 Z M 116 32 L 117 33 L 116 35 L 118 36 Q 120 31 116 32 Z " /><path fill="rgb(7,86,254)" stroke="rgb(7,86,254)" stroke-width="1" opacity="0.7333333333333333" d="M 50.5 32 L 51 34.5 L 47.5 41 L 48 39.5 L 50.5 32 Z " /><path fill="rgb(7,86,254)" stroke="rgb(7,86,254)" stroke-width="1" opacity="0.7333333333333333" d="M 67.5 33 Q 69.9 44.1 77.5 50 L 79 50.5 L 77.5 51 L 72 48 Q 73.1 50.7 70.5 50 L 71 48.5 Q 70.3 46.3 72.5 47 L 72 45.5 L 68.5 41 L 67 40.5 L 67.5 39 L 65 38.5 L 68 37.5 L 67.5 33 Z " /><path fill="rgb(7,86,254)" stroke="rgb(7,86,254)" stroke-width="1" opacity="0.7333333333333333" d="M 103.5 33 L 105 33.5 L 101 35 Q 102.1 37.7 99.5 37 L 98.5 41 Q 101.1 40.3 100 43 L 103 43 L 103 45 Q 98.3 45.8 97 41.5 L 97 38.5 L 99 35 L 103.5 33 Z " /><path fill="rgb(7,86,254)" stroke="rgb(7,86,254)" stroke-width="1" opacity="0.7333333333333333" d="M 53.5 37 L 56 37.5 L 53.5 38 L 53.5 37 Z " /><path fill="rgb(7,86,254)" stroke="rgb(7,86,254)" stroke-width="1" opacity="0.7333333333333333" d="M 57.5 40 L 58 41.5 L 55.5 46 L 55 44.5 L 57.5 40 Z " /><path fill="rgb(7,86,254)" stroke="rgb(7,86,254)" stroke-width="1" opacity="0.7333333333333333" d="M 46.5 42 L 44.5 45 L 46.5 42 Z " /><path fill="rgb(7,86,254)" stroke="rgb(7,86,254)" stroke-width="1" opacity="0.7333333333333333" d="M 60.5 42 L 64 44.5 L 62 45.5 L 60.5 42 Z " /><path fill="rgb(7,86,254)" stroke="rgb(7,86,254)" stroke-width="1" opacity="0.7333333333333333" d="M 105.5 42 L 110 42.5 L 104.5 44 L 105.5 42 Z " /><path fill="rgb(7,86,254)" stroke="rgb(7,86,254)" stroke-width="1" opacity="0.7333333333333333" d="M 65.5 45 L 65 46.5 Q 64.3 48.8 66.5 48 L 66.5 49 L 64.5 48 L 63 48.5 L 65.5 45 Z " /><path fill="rgb(7,86,254)" stroke="rgb(7,86,254)" stroke-width="1" opacity="0.7333333333333333" d="M 43.5 46 L 40.5 50 L 43.5 46 Z " /><path fill="rgb(7,86,254)" stroke="rgb(7,86,254)" stroke-width="1" opacity="0.7333333333333333" d="M 53 48 L 55 48.5 L 53 49.5 L 53 48 Z " /><path fill="rgb(7,86,254)" stroke="rgb(7,86,254)" stroke-width="1" opacity="0.7333333333333333" d="M 65 50 L 67 50.5 L 66.5 53 L 65 50 Z " /><path fill="rgb(7,86,254)" stroke="rgb(7,86,254)" stroke-width="1" opacity="0.7333333333333333" d="M 38.5 51 L 39 52.5 L 32.5 57 L 28.5 58 L 28.5 57 Q 35.5 56 38.5 51 Z " /><path fill="rgb(7,86,254)" stroke="rgb(7,86,254)" stroke-width="1" opacity="0.7333333333333333" d="M 50.5 52 L 51 53.5 L 50 56 Q 47.3 54.9 48 57.5 L 39.5 64 L 40 62.5 Q 39.3 60.3 41.5 61 L 47 57.5 L 50.5 52 Z " /><path fill="rgb(7,86,254)" stroke="rgb(7,86,254)" stroke-width="1" opacity="0.7333333333333333" d="M 84.5 53 L 86.5 56 L 84.5 53 Z " /><path fill="rgb(7,86,254)" stroke="rgb(7,86,254)" stroke-width="1" opacity="0.7333333333333333" d="M 68.5 54 L 71 55.5 L 74 59.5 L 68.5 54 Z " /><path fill="rgb(7,86,254)" stroke="rgb(7,86,254)" stroke-width="1" opacity="0.7333333333333333" d="M 88.5 55 L 92 56.5 L 90.5 57 L 88.5 55 Z " /><path fill="rgb(7,86,254)" stroke="rgb(7,86,254)" stroke-width="1" opacity="0.7333333333333333" d="M 37.5 57 L 40 57.5 L 37.5 58 L 37.5 57 Z " /><path fill="rgb(7,86,254)" stroke="rgb(7,86,254)" stroke-width="1" opacity="0.7333333333333333" d="M 86.5 57 Q 89.8 55.9 89 58.5 L 87 59.5 L 87.5 58 L 86.5 57 Z " /><path fill="rgb(7,86,254)" stroke="rgb(7,86,254)" stroke-width="1" opacity="0.7333333333333333" d="M 97.5 57 L 105 58.5 L 101.5 59 L 97.5 58 L 97.5 57 Z " /><path fill="rgb(7,86,254)" stroke="rgb(7,86,254)" stroke-width="1" opacity="0.7333333333333333" d="M 21 58 L 27 58.5 L 21 60 L 21 58 Z " /><path fill="rgb(7,86,254)" stroke="rgb(7,86,254)" stroke-width="1" opacity="0.7333333333333333" d="M 18 59 Q 20.7 57.9 20 60.5 L 19.5 62 L 21 62.5 L 19 63 L 18 65.5 L 20.5 69 L 16 65.5 L 16 61 Q 19 62 18 59 Z " /><path fill="rgb(7,86,254)" stroke="rgb(7,86,254)" stroke-width="1" opacity="0.7333333333333333" d="M 106.5 59 L 110 61.5 L 110 63.5 L 107.5 68 L 98.5 70 L 96.5 69 L 95.5 72 Q 93.3 72.8 94 70.5 L 97.5 68 L 101.5 69 L 107 66.5 L 108 61 Q 104.8 62 106.5 59 Z " /><path fill="rgb(7,86,254)" stroke="rgb(7,86,254)" stroke-width="1" opacity="0.7333333333333333" d="M 85 64 Q 88 63 87 66 Q 84 67 85 64 Z " /><path fill="rgb(7,86,254)" stroke="rgb(7,86,254)" stroke-width="1" opacity="0.7333333333333333" d="M 38.5 65 L 46 71.5 L 44.5 72 Q 42.9 67.1 37 66.5 L 38.5 65 Z " /><path fill="rgb(7,86,254)" stroke="rgb(7,86,254)" stroke-width="1" opacity="0.7333333333333333" d="M 83.5 66 L 82.5 69 L 84 69.5 L 81.5 71 L 80 68 L 83.5 66 Z " /><path fill="rgb(7,86,254)" stroke="rgb(7,86,254)" stroke-width="1" opacity="0.7333333333333333" d="M 30.5 67 L 32 70 L 25 69.5 L 30 69 L 30.5 67 Z " /><path fill="rgb(7,86,254)" stroke="rgb(7,86,254)" stroke-width="1" opacity="0.7333333333333333" d="M 23.5 68 L 22.5 70 L 23.5 68 Z " /><path fill="rgb(7,86,254)" stroke="rgb(7,86,254)" stroke-width="1" opacity="0.7333333333333333" d="M 75.5 71 L 77 71.5 L 73 74.5 L 72 77.5 Q 74.7 79.3 70.5 81 L 67 81 L 67 84 Q 64.3 82.9 65 85.5 L 63 86.5 L 75.5 71 Z " /><path fill="rgb(7,86,254)" stroke="rgb(7,86,254)" stroke-width="1" opacity="0.7333333333333333" d="M 46.5 73 L 49.5 75 L 51 78 Q 54 76.8 53 80.5 L 54.5 83 L 52.5 84 L 52 82.5 L 52.5 81 L 49.5 79 L 47.5 80 L 47.5 79 L 49 78.5 L 48.5 77 L 50 76.5 L 46.5 73 Z " /><path fill="rgb(7,86,254)" stroke="rgb(7,86,254)" stroke-width="1" opacity="0.7333333333333333" d="M 34.5 75 L 36.5 78 L 34.5 75 Z " /><path fill="rgb(7,86,254)" stroke="rgb(7,86,254)" stroke-width="1" opacity="0.7333333333333333" d="M 87.5 75 L 86.5 77 L 87.5 75 Z " /><path fill="rgb(7,86,254)" stroke="rgb(7,86,254)" stroke-width="1" opacity="0.7333333333333333" d="M 83.5 77 L 85 77.5 L 81.5 80 L 83.5 77 Z " /><path fill="rgb(7,86,254)" stroke="rgb(7,86,254)" stroke-width="1" opacity="0.7333333333333333" d="M 39.5 79 L 46 84.5 L 45.5 86 L 48 87.5 L 49 90.5 L 47 91 L 46 88.5 L 46.5 87 L 42 83.5 L 39.5 79 Z " /><path fill="rgb(7,86,254)" stroke="rgb(7,86,254)" stroke-width="1" opacity="0.7333333333333333" d="M 49.5 81 L 48.5 83 L 49.5 81 Z " /><path fill="rgb(7,86,254)" stroke="rgb(7,86,254)" stroke-width="1" opacity="0.7333333333333333" d="M 79.5 81 L 77.5 84 L 76 83.5 L 79.5 81 Z " /><path fill="rgb(7,86,254)" stroke="rgb(7,86,254)" stroke-width="1" opacity="0.7333333333333333" d="M 55.5 84 L 56.5 86 L 55.5 84 Z " /><path fill="rgb(7,86,254)" stroke="rgb(7,86,254)" stroke-width="1" opacity="0.7333333333333333" d="M 74.5 85 L 75 87.5 L 73 88.5 L 74.5 85 Z " /><path fill="rgb(7,86,254)" stroke="rgb(7,86,254)" stroke-width="1" opacity="0.7333333333333333" d="M 57.5 87 L 59.5 92 Q 62.1 91.3 61 94 Q 58.3 95.1 59 92.5 L 56 91 L 57.5 87 Z " /><path fill="rgb(7,86,254)" stroke="rgb(7,86,254)" stroke-width="1" opacity="0.7333333333333333" d="M 62.5 88 L 61.5 90 L 62.5 88 Z " /><path fill="rgb(7,86,254)" stroke="rgb(7,86,254)" stroke-width="1" opacity="0.7333333333333333" d="M 72.5 90 L 71.5 92 L 72.5 90 Z " /><path fill="rgb(7,86,254)" stroke="rgb(7,86,254)" stroke-width="1" opacity="0.7333333333333333" d="M 48.5 92 L 49 94 L 52 95.5 L 50 96.5 L 51 98.5 L 50 98.5 L 48.5 92 Z " /><path fill="rgb(7,86,254)" stroke="rgb(7,86,254)" stroke-width="1" opacity="0.7333333333333333" d="M 70.5 93 L 71 94.5 L 69.5 97 L 69 95.5 L 70.5 93 Z " /><path fill="rgb(7,86,254)" stroke="rgb(7,86,254)" stroke-width="1" opacity="0.7333333333333333" d="M 68.5 98 L 68 99.5 L 67.5 101 L 67 99.5 L 68.5 98 Z " /><path fill="rgb(7,86,254)" stroke="rgb(7,86,254)" stroke-width="1" opacity="0.7333333333333333" d="M 51.5 100 L 53 104 L 55 104.5 L 54.5 107 Q 51.9 107.8 53 104.5 L 51.5 100 Z " /><path fill="rgb(7,86,254)" stroke="rgb(7,86,254)" stroke-width="1" opacity="0.7333333333333333" d="M 66.5 102 L 67 104.5 L 66 104.5 L 66.5 102 Z " /><path fill="rgb(7,86,254)" stroke="rgb(7,86,254)" stroke-width="1" opacity="0.7333333333333333" d="M 54.5 108 L 57.5 115 L 62 114 L 62.5 112 Q 63.7 114.3 65 111.5 L 66 109.5 L 65.5 108 Q 67.8 107.3 67 109.5 L 66 112.5 Q 67.3 116.3 63.5 115 Q 62.3 117.3 57.5 116 Q 53.4 113.7 54.5 108 Z " /><path fill="rgb(6,86,254)" stroke="rgb(6,86,254)" stroke-width="1" opacity="0.9254901960784314" d="M 83.5 3 L 84.5 5 L 82 5.5 L 83 8.5 L 82 8.5 L 81 4 L 83.5 3 Z " /><path fill="rgb(6,86,254)" stroke="rgb(6,86,254)" stroke-width="1" opacity="0.9254901960784314" d="M 78 7 Q 80.7 5.9 80 8.5 L 77 16.5 L 79.5 18 L 79 16.5 Q 78 12.8 81 14 Q 79.9 16.7 82.5 16 L 82.5 13 L 81 12.5 L 82.5 12 L 84 12.5 Q 84.8 10.3 82.5 11 L 82.5 10 Q 84.8 10.8 84 8.5 Q 85.5 5.5 87 8.5 L 83 18 Q 78.9 16.7 80 20 L 82 20.5 L 79 21 Q 80.1 23.7 77.5 23 L 74 20.5 L 74.5 16 L 76 16.5 L 75 13 L 78 11.5 L 77 9.5 L 78 7 Z M 77 17 Q 74 21 78 20 L 79 21 Q 80 18 77 19 L 77 17 Z " /><path fill="rgb(6,86,254)" stroke="rgb(6,86,254)" stroke-width="1" opacity="0.9254901960784314" d="M 60.5 12 L 67 16.5 L 66.5 18 L 64.5 15 L 63 15.5 L 63.5 17 L 61 15.5 Q 63.3 14.3 60.5 13 L 59.5 15 L 59 13.5 L 60.5 12 Z " /><path fill="rgb(6,86,254)" stroke="rgb(6,86,254)" stroke-width="1" opacity="0.9254901960784314" d="M 101.5 13 L 103 13.5 L 98 15.5 Q 99.3 18.3 100.5 16 L 103 17.5 L 99 18.5 L 103 19 L 102.5 21 L 100.5 20 L 98 21 L 97.5 17 L 96 17.5 L 97 15.5 L 96.5 14 L 101.5 13 Z " /><path fill="rgb(6,86,254)" stroke="rgb(6,86,254)" stroke-width="1" opacity="0.9254901960784314" d="M 57.5 15 L 58 17.5 L 57 17.5 L 57.5 15 Z " /><path fill="rgb(6,86,254)" stroke="rgb(6,86,254)" stroke-width="1" opacity="0.9254901960784314" d="M 94.5 16 L 90 21.5 L 89.5 23 L 89 21.5 L 94.5 16 Z " /><path fill="rgb(6,86,254)" stroke="rgb(6,86,254)" stroke-width="1" opacity="0.9254901960784314" d="M 56.5 20 Q 59.3 21.3 57 22.5 Q 57.7 25.1 55 24 L 55 27 L 57 27.5 L 54 28.5 L 57 30.5 L 55 32.5 L 56.5 35 L 55 34.5 Q 54.3 36.8 56.5 36 L 59 39.5 L 57 40 L 55 48 Q 51.7 49.1 53 45 L 50.5 45 L 50.5 44 L 55 43 L 55 39 L 53.5 39 L 52 37.5 L 53.5 35 L 51.5 36 L 51 31.5 L 54 27.5 L 54 24.5 L 57 21.5 L 56.5 20 Z M 54 29 L 53 31 L 53 32 L 56 31 L 54 29 Z M 54 37 L 54 38 L 56 38 L 54 37 Z " /><path fill="rgb(6,86,254)" stroke="rgb(6,86,254)" stroke-width="1" opacity="0.9254901960784314" d="M 101.5 22 L 100.5 24 L 101.5 22 Z " /><path fill="rgb(6,86,254)" stroke="rgb(6,86,254)" stroke-width="1" opacity="0.9254901960784314" d="M 66.5 23 L 67 36.5 L 68 37.5 L 66 38 L 65 34.5 L 66 31.5 L 64.5 29 L 66 28.5 L 66.5 23 Z " /><path fill="rgb(6,86,254)" stroke="rgb(6,86,254)" stroke-width="1" opacity="0.9254901960784314" d="M 90.5 24 L 90.5 26 L 95.5 28 L 98 26.5 Q 96.3 30.7 94.5 28 L 89 27 L 90.5 24 Z " /><path fill="rgb(6,86,254)" stroke="rgb(6,86,254)" stroke-width="1" opacity="0.9254901960784314" d="M 114.5 31 L 118 32 L 117.5 36 L 114 35.5 Q 113.1 38.5 117.5 37 L 116.5 39 L 114.5 40 L 112.5 36 L 111 36.5 L 112.5 32 L 114.5 33 L 114.5 31 Z M 115 33 L 115 35 L 117 34 L 115 33 Z " /><path fill="rgb(6,86,254)" stroke="rgb(6,86,254)" stroke-width="1" opacity="0.9254901960784314" d="M 108.5 32 L 111 32.5 L 108.5 33 L 108.5 32 Z " /><path fill="rgb(6,86,254)" stroke="rgb(6,86,254)" stroke-width="1" opacity="0.9254901960784314" d="M 105 33 Q 108 32 107 35 Q 104 36 105 33 Z " /><path fill="rgb(6,86,254)" stroke="rgb(6,86,254)" stroke-width="1" opacity="0.9254901960784314" d="M 103.5 34 L 101 39.5 L 103 42.5 L 105 42.5 Q 103.8 45.3 102.5 43 L 100 43 Q 101.1 40.3 98.5 41 L 99.5 37 L 102.5 35 L 103.5 34 Z " /><path fill="rgb(6,86,254)" stroke="rgb(6,86,254)" stroke-width="1" opacity="0.9254901960784314" d="M 49 37 L 51 37.5 L 50 41.5 L 47.5 44 L 45 45.5 L 43.5 50 Q 42.3 47.8 41 50.5 Q 41.8 52.8 39.5 52 L 44 46.5 L 49 39.5 L 49 37 Z " /><path fill="rgb(6,86,254)" stroke="rgb(6,86,254)" stroke-width="1" opacity="0.9254901960784314" d="M 109.5 38 L 109 39.5 L 108.5 42 Q 105 40 109.5 38 Z " /><path fill="rgb(6,86,254)" stroke="rgb(6,86,254)" stroke-width="1" opacity="0.9254901960784314" d="M 65 39 L 68 39.5 L 65 41 L 65 39 Z " /><path fill="rgb(6,86,254)" stroke="rgb(6,86,254)" stroke-width="1" opacity="0.9254901960784314" d="M 60.5 40 L 62.5 43 L 66.5 45 L 69 44 L 68 41.5 L 72 44.5 L 73 46.5 L 71.5 46 L 70 46.5 L 71 48.5 L 69.5 48 L 67.5 49 L 65.5 48 L 65.5 50 Q 62.8 48.8 65 47.5 Q 65.8 45.3 63.5 46 L 63.5 44 L 60 41.5 L 60.5 40 Z " /><path fill="rgb(6,86,254)" stroke="rgb(6,86,254)" stroke-width="1" opacity="0.9254901960784314" d="M 112.5 40 L 111.5 42 L 110 41.5 L 112.5 40 Z " /><path fill="rgb(6,86,254)" stroke="rgb(6,86,254)" stroke-width="1" opacity="0.9254901960784314" d="M 75.5 49 L 76.5 51 L 74 50.5 L 75.5 49 Z " /><path fill="rgb(6,86,254)" stroke="rgb(6,86,254)" stroke-width="1" opacity="0.9254901960784314" d="M 52.5 50 L 51.5 52 Q 49.3 51.3 50 53.5 L 46.5 56 L 46.5 55 L 49 53.5 Q 47.8 49.8 51.5 51 L 52.5 50 Z " /><path fill="rgb(6,86,254)" stroke="rgb(6,86,254)" stroke-width="1" opacity="0.9254901960784314" d="M 66.5 51 Q 68.8 50.3 68 52.5 L 69.5 52 L 72 52.5 L 71.5 54 L 73 54.5 L 72.5 56 L 74 56.5 Q 71.8 57.8 74.5 59 L 78 60.5 L 76.5 61 L 71 56.5 L 69.5 54 Q 66.2 55.1 67 52.5 L 66.5 51 Z " /><path fill="rgb(6,86,254)" stroke="rgb(6,86,254)" stroke-width="1" opacity="0.9254901960784314" d="M 76.5 53 L 79 54.5 L 77.5 54 L 76.5 53 Z " /><path fill="rgb(6,86,254)" stroke="rgb(6,86,254)" stroke-width="1" opacity="0.9254901960784314" d="M 83.5 53 L 91.5 58 L 92.5 56 L 101 58 Q 102.3 61 98.5 60 Q 97 56.5 95.5 59 Q 92.2 57.9 93 60.5 Q 91.5 63.5 90 60.5 L 89.5 59 L 87 59.5 Q 86.3 61.8 88.5 61 L 89.5 63 L 84 59.5 L 87.5 58 L 89 58.5 Q 89.9 55.5 85.5 57 Q 81.9 55.9 83.5 53 Z " /><path fill="rgb(6,86,254)" stroke="rgb(6,86,254)" stroke-width="1" opacity="0.9254901960784314" d="M 36.5 54 L 38 54.5 L 35 56.5 L 39.5 58 L 39.5 56 L 41 56 Q 39.5 59.8 42.5 59 L 41.5 61 Q 39.3 60.3 40 62.5 Q 36.4 64.4 37 69 L 34.5 70 L 34.5 68 L 31 67.5 L 33.5 66 L 34.5 67 L 38 63.5 L 39 60 L 34 58.5 L 34.5 57 L 33 56.5 L 36.5 54 Z " /><path fill="rgb(6,86,254)" stroke="rgb(6,86,254)" stroke-width="1" opacity="0.9254901960784314" d="M 31.5 57 L 30.5 59 L 25.5 60 L 25.5 59 L 31.5 57 Z " /><path fill="rgb(6,86,254)" stroke="rgb(6,86,254)" stroke-width="1" opacity="0.9254901960784314" d="M 46.5 57 L 45.5 59 L 44 58.5 L 46.5 57 Z " /><path fill="rgb(6,86,254)" stroke="rgb(6,86,254)" stroke-width="1" opacity="0.9254901960784314" d="M 20.5 59 L 22 64.5 L 20.5 67 L 23.5 66 L 25 68.5 L 22.5 69 L 18 65.5 L 19 63 L 21 62.5 L 19 61.5 L 20.5 59 Z " /><path fill="rgb(6,86,254)" stroke="rgb(6,86,254)" stroke-width="1" opacity="0.9254901960784314" d="M 103.5 59 L 106 59 Q 105 62 108 61 L 108 63.5 L 105.5 68 L 104 67.5 L 104.5 65 L 106 65 L 106 61 L 103.5 59 Z " /><path fill="rgb(6,86,254)" stroke="rgb(6,86,254)" stroke-width="1" opacity="0.9254901960784314" d="M 94.5 60 L 97 60.5 L 94.5 61 L 94.5 60 Z " /><path fill="rgb(6,86,254)" stroke="rgb(6,86,254)" stroke-width="1" opacity="0.9254901960784314" d="M 79.5 61 L 83 62.5 L 81.5 63 L 79.5 61 Z " /><path fill="rgb(6,86,254)" stroke="rgb(6,86,254)" stroke-width="1" opacity="0.9254901960784314" d="M 87.5 64 L 89 67.5 L 88.5 69 L 87 68.5 Q 87.8 70.8 85.5 70 L 83.5 73 Q 82.3 70.8 77.5 72 L 77.5 73 L 79 73.5 L 77.5 74 L 75.5 73 L 73 77.5 L 74 79.5 L 72 83 L 68 82 L 69.5 85 Q 72.1 84.2 71 87.5 L 68 87.5 L 66.5 85 L 63.5 91 L 61.5 92 L 61 90.5 L 65 84 Q 67.7 85.1 67 82.5 L 69.5 81 L 71 81.5 L 73 78.5 L 72 76.5 L 75.5 72 Q 81.6 70.6 84.5 66 L 87 66 L 87.5 64 Z " /><path fill="rgb(6,86,254)" stroke="rgb(6,86,254)" stroke-width="1" opacity="0.9254901960784314" d="M 90.5 66 L 93 66.5 L 90.5 67 L 90.5 66 Z " /><path fill="rgb(6,86,254)" stroke="rgb(6,86,254)" stroke-width="1" opacity="0.9254901960784314" d="M 39.5 67 L 46 72 L 48.5 76 L 50 76.5 L 48 77.5 L 51 79 Q 49.9 81.7 52.5 81 L 52.5 82 L 51 82.5 L 51 84.5 L 51.5 86 L 53 83 Q 55.7 81.9 55 84.5 L 57 88.5 L 55 89.5 L 54.5 88 L 53 90.5 Q 57.6 89.9 59 92.5 Q 59.8 94.8 57.5 94 L 54.5 92 L 54.5 94 L 51.5 92 L 49 93.5 L 48 91.5 L 48 89.5 L 50 86.5 L 46.5 85 L 45 85.5 L 45.5 84 L 35 75.5 L 39 77.5 L 39.5 76 L 40 79 L 45.5 80 L 47.5 80 L 49 79.5 L 45.5 74 Q 41.1 75.5 42 72.5 L 39.5 67 Z M 50 81 L 48 83 L 50 83 L 50 81 Z M 47 83 L 48 85 Q 49 82 47 83 Z M 52 87 Q 52 91 54 88 L 52 87 Z " /><path fill="rgb(6,86,254)" stroke="rgb(6,86,254)" stroke-width="1" opacity="0.9254901960784314" d="M 95.5 68 L 97.5 69 L 99.5 68 L 99.5 69 L 96.5 70 Q 95.3 67.8 94 70.5 Q 94.8 72.8 92.5 72 L 81.5 79 L 80 76.5 L 82 75.5 L 80.5 73 Q 83.1 72.3 82 75 L 86 75 Q 84.9 72.3 87.5 73 L 89.5 73 L 95.5 68 Z " /><path fill="rgb(6,86,254)" stroke="rgb(6,86,254)" stroke-width="1" opacity="0.9254901960784314" d="M 29.5 70 Q 33.9 68.5 33 71.5 L 31.5 71 Q 28.5 71.5 29.5 70 Z " /><path fill="rgb(6,86,254)" stroke="rgb(6,86,254)" stroke-width="1" opacity="0.9254901960784314" d="M 32.5 73 L 33.5 75 L 32.5 73 Z " /><path fill="rgb(6,86,254)" stroke="rgb(6,86,254)" stroke-width="1" opacity="0.9254901960784314" d="M 79.5 80 L 77.5 83 L 79.5 80 Z " /><path fill="rgb(6,86,254)" stroke="rgb(6,86,254)" stroke-width="1" opacity="0.9254901960784314" d="M 73.5 85 L 74 87.5 L 69.5 95 L 68.5 93 Q 70.8 93.8 70 91.5 L 73.5 85 Z " /><path fill="rgb(6,86,254)" stroke="rgb(6,86,254)" stroke-width="1" opacity="0.9254901960784314" d="M 68.5 90 L 66.5 93 L 68.5 90 Z " /><path fill="rgb(6,86,254)" stroke="rgb(6,86,254)" stroke-width="1" opacity="0.9254901960784314" d="M 61.5 93 L 63 98 L 67 99 L 66.5 102 L 64 101 L 62.5 98 Q 60.3 98.8 61 96.5 L 60 94.5 L 61.5 93 Z " /><path fill="rgb(6,86,254)" stroke="rgb(6,86,254)" stroke-width="1" opacity="0.9254901960784314" d="M 51.5 94 Q 54.3 95.3 52 96.5 Q 51.3 101.3 54.5 102 L 57 101.5 L 56.5 100 Q 58.8 99.3 58 101.5 Q 56.8 104.8 53 104 L 50 96.5 L 52 95.5 L 51.5 94 Z " /><path fill="rgb(6,86,254)" stroke="rgb(6,86,254)" stroke-width="1" opacity="0.9254901960784314" d="M 64.5 102 L 66 105.5 L 65 110.5 L 63.5 113 L 62 112.5 Q 62.8 114.8 60.5 114 L 60.5 112 L 59 111.5 L 65 109.5 L 61 107.5 L 62.5 108 L 65 107.5 L 65 105.5 Q 65.8 103.3 63.5 104 L 64.5 102 Z " /><path fill="rgb(6,86,254)" stroke="rgb(6,86,254)" stroke-width="1" opacity="0.9254901960784314" d="M 55.5 109 L 56.5 111 L 55.5 109 Z " /><path fill="rgb(6,86,254)" stroke="rgb(6,86,254)" stroke-width="1" opacity="0.9254901960784314" d="M 56.5 112 L 57 114 L 59 114.5 L 57.5 115 L 56.5 112 Z " /><path fill="rgb(9,84,253)" stroke="rgb(9,84,253)" stroke-width="1" opacity="0.2549019607843137" d="M 85.5 0 Q 87.8 -0.8 87 1.5 Q 91.5 3 90 10.5 L 85.5 16 L 85 14.5 L 89 8.5 L 88 6 L 84 5.5 L 88 4.5 L 86 4 Q 87.3 1 83.5 2 L 80 3 L 77.5 8 L 78 6.5 L 80.5 2 L 85.5 0 Z " /><path fill="rgb(9,84,253)" stroke="rgb(9,84,253)" stroke-width="1" opacity="0.2549019607843137" d="M 60.5 10 Q 66.1 10.5 68 14.5 L 67.5 18 L 63.5 12 L 60.5 11 Q 56.4 12.4 56.5 18 L 56 14.5 L 60.5 10 Z " /><path fill="rgb(9,84,253)" stroke="rgb(9,84,253)" stroke-width="1" opacity="0.2549019607843137" d="M 75 10 L 77 10.5 Q 72.5 14 73 22.5 Q 73.8 24.8 77.5 24 L 83 20.5 L 84.5 17 L 84 18.5 L 83 23 L 81 23 Q 82.1 25.7 79.5 25 L 76.5 27 L 72 22.5 L 72 17.5 L 75 10 Z " /><path fill="rgb(9,84,253)" stroke="rgb(9,84,253)" stroke-width="1" opacity="0.2549019607843137" d="M 100.5 10 L 102.5 10 L 107 14.5 L 106.5 19 L 106 17 L 104 16.5 L 104.5 15 L 103 14.5 L 105 13.5 L 102.5 12 L 100.5 12 L 99 11.5 L 100.5 10 Z " /><path fill="rgb(9,84,253)" stroke="rgb(9,84,253)" stroke-width="1" opacity="0.2549019607843137" d="M 97.5 11 L 98 13 L 95 14.5 Q 95.8 16.8 93.5 16 L 92 19 L 90 18.5 L 97.5 11 Z " /><path fill="rgb(9,84,253)" stroke="rgb(9,84,253)" stroke-width="1" opacity="0.2549019607843137" d="M 88.5 20 L 90 20.5 L 87.5 22 L 88.5 20 Z " /><path fill="rgb(9,84,253)" stroke="rgb(9,84,253)" stroke-width="1" opacity="0.2549019607843137" d="M 105.5 20 L 105 21.5 L 104 25 L 101.5 25 L 93.5 32 L 88.5 31 L 86 28.5 L 85 25.5 L 86 23 Q 89 21.8 88 25.5 L 88 27.5 Q 87.3 29.8 89.5 29 Q 90.8 31.2 95.5 30 L 103 21 L 105.5 20 Z " /><path fill="rgb(9,84,253)" stroke="rgb(9,84,253)" stroke-width="1" opacity="0.2549019607843137" d="M 54.5 22 L 54 23.5 L 50.5 32 L 51 30.5 L 54.5 22 Z " /><path fill="rgb(9,84,253)" stroke="rgb(9,84,253)" stroke-width="1" opacity="0.2549019607843137" d="M 67.5 23 L 68 25.5 L 67 25.5 L 67.5 23 Z " /><path fill="rgb(9,84,253)" stroke="rgb(9,84,253)" stroke-width="1" opacity="0.2549019607843137" d="M 112.5 28 L 120 31 L 121 35.5 L 119.5 39 L 119 36.5 L 119 34.5 Q 119.5 30.5 116.5 30 Q 110.4 29.4 107.5 32 L 107.5 31 L 112.5 28 Z " /><path fill="rgb(9,84,253)" stroke="rgb(9,84,253)" stroke-width="1" opacity="0.2549019607843137" d="M 100.5 33 L 103 33.5 L 99 35 L 97 38.5 L 97 41.5 Q 97.5 45.5 102.5 45 L 104.5 44 L 104.5 45 L 100.5 46 L 95 41.5 Q 94.9 35.9 98.5 34 L 100.5 33 Z " /><path fill="rgb(9,84,253)" stroke="rgb(9,84,253)" stroke-width="1" opacity="0.2549019607843137" d="M 68.5 34 L 69 36.5 L 68 36.5 L 68.5 34 Z " /><path fill="rgb(9,84,253)" stroke="rgb(9,84,253)" stroke-width="1" opacity="0.2549019607843137" d="M 47.5 38 L 48 39.5 L 45.5 43 L 45 41.5 L 47.5 38 Z " /><path fill="rgb(9,84,253)" stroke="rgb(9,84,253)" stroke-width="1" opacity="0.2549019607843137" d="M 69.5 38 L 73 43.5 L 71 42.5 L 69.5 38 Z " /><path fill="rgb(9,84,253)" stroke="rgb(9,84,253)" stroke-width="1" opacity="0.2549019607843137" d="M 117.5 39 L 116.5 41 L 113.5 42 L 113.5 41 L 117.5 39 Z " /><path fill="rgb(9,84,253)" stroke="rgb(9,84,253)" stroke-width="1" opacity="0.2549019607843137" d="M 58.5 40 L 59.5 42 Q 57.3 41.3 58 43.5 L 57 43.5 L 58.5 40 Z " /><path fill="rgb(9,84,253)" stroke="rgb(9,84,253)" stroke-width="1" opacity="0.2549019607843137" d="M 60.5 43 L 62 46 L 64 46.5 L 62 47.5 L 60.5 43 Z " /><path fill="rgb(9,84,253)" stroke="rgb(9,84,253)" stroke-width="1" opacity="0.2549019607843137" d="M 43.5 45 L 42.5 47 L 43.5 45 Z " /><path fill="rgb(9,84,253)" stroke="rgb(9,84,253)" stroke-width="1" opacity="0.2549019607843137" d="M 56.5 45 L 56 46.5 Q 56.5 50.5 53.5 51 L 55 48.5 L 56.5 45 Z " /><path fill="rgb(9,84,253)" stroke="rgb(9,84,253)" stroke-width="1" opacity="0.2549019607843137" d="M 73.5 45 L 74.5 47 L 73.5 45 Z " /><path fill="rgb(9,84,253)" stroke="rgb(9,84,253)" stroke-width="1" opacity="0.2549019607843137" d="M 76.5 48 L 77.5 50 L 76.5 48 Z " /><path fill="rgb(9,84,253)" stroke="rgb(9,84,253)" stroke-width="1" opacity="0.2549019607843137" d="M 63.5 49 Q 66.1 48.2 65 51.5 L 72.5 60 L 67 55.5 L 65 52.5 L 63.5 49 Z " /><path fill="rgb(9,84,253)" stroke="rgb(9,84,253)" stroke-width="1" opacity="0.2549019607843137" d="M 85.5 53 L 89 54.5 L 87.5 56 L 85.5 53 Z " /><path fill="rgb(9,84,253)" stroke="rgb(9,84,253)" stroke-width="1" opacity="0.2549019607843137" d="M 33.5 54 L 32.5 56 L 30.5 57 L 31.5 55 L 33.5 54 Z " /><path fill="rgb(9,84,253)" stroke="rgb(9,84,253)" stroke-width="1" opacity="0.2549019607843137" d="M 93.5 55 L 98.5 56 L 102.5 55 Q 104.4 58.6 109 58 Q 108.3 61.1 111 60.5 L 111 66.5 L 105.5 70 L 96.5 72 L 95.5 70 L 105.5 69 L 109 66.5 L 110 63.5 L 108.5 60 L 100.5 57 L 94.5 57 L 93.5 55 Z " /><path fill="rgb(9,84,253)" stroke="rgb(9,84,253)" stroke-width="1" opacity="0.2549019607843137" d="M 20.5 57 L 24 57.5 L 18 59 Q 19 62 16 61 L 16 65.5 L 22 69.5 L 19.5 71 L 15.5 70 L 13 67.5 L 14 63.5 L 13 61.5 L 14 59 L 20.5 57 Z " /><path fill="rgb(9,84,253)" stroke="rgb(9,84,253)" stroke-width="1" opacity="0.2549019607843137" d="M 47.5 58 L 46.5 60 L 47.5 58 Z " /><path fill="rgb(9,84,253)" stroke="rgb(9,84,253)" stroke-width="1" opacity="0.2549019607843137" d="M 44.5 60 L 45 62 L 41.5 64 L 44.5 60 Z " /><path fill="rgb(9,84,253)" stroke="rgb(9,84,253)" stroke-width="1" opacity="0.2549019607843137" d="M 76.5 61 L 80 62.5 L 78.5 63 L 76.5 61 Z " /><path fill="rgb(9,84,253)" stroke="rgb(9,84,253)" stroke-width="1" opacity="0.2549019607843137" d="M 81.5 63 L 85 64 L 84.5 66 L 81.5 63 Z " /><path fill="rgb(9,84,253)" stroke="rgb(9,84,253)" stroke-width="1" opacity="0.2549019607843137" d="M 38.5 64 Q 40.8 63.3 40 65.5 L 44.5 71 L 38.5 64 Z " /><path fill="rgb(9,84,253)" stroke="rgb(9,84,253)" stroke-width="1" opacity="0.2549019607843137" d="M 82.5 66 L 81.5 68 L 82.5 66 Z " /><path fill="rgb(9,84,253)" stroke="rgb(9,84,253)" stroke-width="1" opacity="0.2549019607843137" d="M 32 68 L 35 68.5 L 32.5 70 L 32 68 Z " /><path fill="rgb(9,84,253)" stroke="rgb(9,84,253)" stroke-width="1" opacity="0.2549019607843137" d="M 79.5 68 L 80 70 L 76.5 71 L 77.5 69 L 79.5 68 Z " /><path fill="rgb(9,84,253)" stroke="rgb(9,84,253)" stroke-width="1" opacity="0.2549019607843137" d="M 27.5 70 L 31 71 L 36.5 78 L 42 82.5 L 37.5 79 L 27.5 71 L 27.5 70 Z " /><path fill="rgb(9,84,253)" stroke="rgb(9,84,253)" stroke-width="1" opacity="0.2549019607843137" d="M 74.5 71 L 69 77.5 L 64.5 84 L 65 82.5 L 74.5 71 Z " /><path fill="rgb(9,84,253)" stroke="rgb(9,84,253)" stroke-width="1" opacity="0.2549019607843137" d="M 91.5 73 L 90.5 75 L 91.5 73 Z " /><path fill="rgb(9,84,253)" stroke="rgb(9,84,253)" stroke-width="1" opacity="0.2549019607843137" d="M 83.5 78 L 79.5 83 L 80 81.5 Q 79.3 79.3 81.5 80 L 83.5 78 Z " /><path fill="rgb(9,84,253)" stroke="rgb(9,84,253)" stroke-width="1" opacity="0.2549019607843137" d="M 53.5 79 L 58 86.5 L 57 86.5 L 53 80.5 L 53.5 79 Z " /><path fill="rgb(9,84,253)" stroke="rgb(9,84,253)" stroke-width="1" opacity="0.2549019607843137" d="M 76.5 84 L 78 84.5 L 73.5 90 L 75 87.5 L 76.5 84 Z " /><path fill="rgb(9,84,253)" stroke="rgb(9,84,253)" stroke-width="1" opacity="0.2549019607843137" d="M 43.5 85 L 47 87.5 L 47 89.5 L 48 92.5 L 46 91.5 L 43.5 85 Z " /><path fill="rgb(9,84,253)" stroke="rgb(9,84,253)" stroke-width="1" opacity="0.2549019607843137" d="M 63.5 85 L 63 86.5 L 61.5 89 L 62 87.5 L 63.5 85 Z " /><path fill="rgb(9,84,253)" stroke="rgb(9,84,253)" stroke-width="1" opacity="0.2549019607843137" d="M 58.5 88 L 59 90 Q 62 89 61 92 L 58 90.5 L 58.5 88 Z " /><path fill="rgb(9,84,253)" stroke="rgb(9,84,253)" stroke-width="1" opacity="0.2549019607843137" d="M 72.5 91 L 72 92.5 L 71.5 94 L 71 92.5 L 72.5 91 Z " /><path fill="rgb(9,84,253)" stroke="rgb(9,84,253)" stroke-width="1" opacity="0.2549019607843137" d="M 48.5 94 L 54 109.5 L 53 109.5 L 48 96.5 L 48.5 94 Z " /><path fill="rgb(9,84,253)" stroke="rgb(9,84,253)" stroke-width="1" opacity="0.2549019607843137" d="M 69.5 97 L 70 98.5 L 68 99.5 L 69.5 97 Z " /><path fill="rgb(9,84,253)" stroke="rgb(9,84,253)" stroke-width="1" opacity="0.2549019607843137" d="M 67.5 101 L 68 103.5 L 67 103.5 L 67.5 101 Z " /><path fill="rgb(9,84,253)" stroke="rgb(9,84,253)" stroke-width="1" opacity="0.2549019607843137" d="M 55.5 114 Q 56.8 117.2 62.5 116 L 64.5 115 L 62.5 118 Q 56 118 55.5 114 Z " /><path fill="rgb(7,86,254)" stroke="rgb(7,86,254)" stroke-width="1" opacity="0.984313725490196" d="M 80.5 5 L 82.5 9 L 84 8.5 Q 84.8 10.8 82.5 10 L 82.5 11 Q 84.8 10.3 84 12.5 Q 80.9 14.2 82.5 16 Q 79.9 16.7 81 14 L 79 14 Q 80.3 18.1 77 17 L 80.5 5 Z " /><path fill="rgb(7,86,254)" stroke="rgb(7,86,254)" stroke-width="1" opacity="0.984313725490196" d="M 60.5 13 L 62.5 17 L 64 16.5 L 63.5 15 L 66 16.5 L 67 20.5 L 66 23.5 Q 67.3 29.6 64.5 29 L 66 31.5 L 65 35.5 L 66 37.5 L 65 41 L 69 42.5 Q 69.8 44.8 67.5 44 Q 66 46.5 64.5 43 L 61 41.5 Q 61.8 39.3 59.5 40 L 58 36 L 56 35.5 Q 58.3 34.3 55.5 33 L 54 33.5 L 55.5 31 L 52.5 32 L 53 30.5 L 54.5 28 L 57 27.5 L 55 27 L 55 24 Q 57.7 25.1 57 22.5 L 57 20.5 L 58 15 Q 60.8 16 60.5 13 Z " /><path fill="rgb(7,86,254)" stroke="rgb(7,86,254)" stroke-width="1" opacity="0.984313725490196" d="M 96.5 15 L 97 16.5 L 96.5 18 Q 99.5 17.2 98 21 L 101.5 21 L 99 24.5 Q 99.8 26.8 97.5 26 Q 96 29.5 94.5 27 L 90 25.5 L 90 23.5 L 90 21.5 L 96.5 15 Z " /><path fill="rgb(7,86,254)" stroke="rgb(7,86,254)" stroke-width="1" opacity="0.984313725490196" d="M 98.5 15 L 101 15.5 Q 98.9 18.8 98.5 15 Z " /><path fill="rgb(7,86,254)" stroke="rgb(7,86,254)" stroke-width="1" opacity="0.984313725490196" d="M 76.5 18 L 79 19 L 78.5 21 L 76 20 L 76.5 18 Z " /><path fill="rgb(7,86,254)" stroke="rgb(7,86,254)" stroke-width="1" opacity="0.984313725490196" d="M 111.5 32 L 114 40 L 109.5 42 L 108.5 39 L 107.5 42 L 103.5 43 L 103 41 Q 100.3 42.1 101 39.5 L 101 37.5 L 104.5 34 L 107 35 Q 105.7 31.7 110.5 33 L 111.5 32 Z " /><path fill="rgb(7,86,254)" stroke="rgb(7,86,254)" stroke-width="1" opacity="0.984313725490196" d="M 50.5 35 L 53 35.5 L 52 37.5 L 55 39 Q 57.1 44.2 52.5 43 L 50 44.5 L 53 45 Q 54.3 49.6 51.5 51 Q 47.8 49.8 49 53.5 L 46 55.5 Q 48.3 56.8 45.5 58 L 41 59 Q 42.5 55.3 39.5 56 L 34 58.5 L 39 60 L 35.5 66 L 29 67 Q 30.3 70.3 25.5 69 L 23.5 66 L 20.5 67 L 22 64.5 L 21 60.5 L 30.5 59 L 38 55 L 39.5 52 Q 41.8 52.8 41 50.5 L 44 49.5 L 46.5 44 L 50 41.5 L 51 37.5 L 50.5 35 Z " /><path fill="rgb(7,86,254)" stroke="rgb(7,86,254)" stroke-width="1" opacity="0.984313725490196" d="M 68.5 48 L 71.5 50 L 74.5 49 Q 77.6 52.7 83 53 L 86 57.5 Q 82.3 59.3 85.5 61 L 89.5 59 L 90 61 L 87 61.5 L 89.5 63 Q 91.8 60.3 97 60.5 L 93 59.5 L 96.5 58 L 100.5 60 L 102.5 59 L 106 61 L 106 65 L 104.5 65 L 103.5 68 L 100.5 69 L 95.5 68 L 88.5 74 L 86 73 Q 87.3 76.3 82.5 75 L 80 76.5 L 81 80 L 72 86.5 L 72 89.5 L 70 93 L 68 93.5 L 69 96.5 L 68 99 L 63.5 98 L 64 99.5 L 66 102.5 L 63 103.5 L 65 104 L 64 106.5 L 64.5 108 L 61.5 107 L 61 109 L 65 109.5 L 59 111.5 L 61 112.5 L 59.5 115 L 57 114 L 56 111.5 L 57 110.5 L 55 106.5 L 58 100 L 56 100 Q 57.1 102.7 54.5 102 Q 51.3 101.3 52 96.5 Q 54.3 95.3 51.5 94 L 50 93.5 Q 51.8 90.3 53.5 94 L 55 93.5 L 54.5 92 L 60 94 L 61 98 Q 63.7 99.1 63 96.5 L 61 92.5 L 65 89.5 L 66 86 Q 68.7 84.9 68 87.5 L 71 87.5 Q 72.1 84.2 69.5 85 L 67 81.5 L 68.5 82 L 70.5 81 L 70.5 83 Q 72.8 83.8 72 81.5 L 74 78.5 L 74 76.5 L 75.5 73 L 82.5 72 Q 83.8 74.3 85 71.5 L 87 68.5 L 89 68.5 L 88 66.5 Q 90.2 65.3 87.5 64 Q 78.8 62.2 73 57.5 L 73.5 56 L 72 55.5 L 72.5 54 L 71 53.5 L 71.5 52 L 68.5 53 L 66 49.5 L 68.5 48 Z M 91 66 L 91 67 L 93 67 L 91 66 Z M 78 73 Q 77 75 81 74 L 82 75 Q 83 71 78 73 Z M 58 108 Q 57 111 60 110 Q 61 107 58 108 Z " /><path fill="rgb(7,86,254)" stroke="rgb(7,86,254)" stroke-width="1" opacity="0.984313725490196" d="M 37 67 L 41 69.5 L 42 74 Q 45.8 73 47 75.5 L 48 78.5 L 43.5 80 L 40 79 L 39.5 76 L 38.5 78 L 32 72.5 L 33 70 L 37 69 L 37 67 Z " /><path fill="rgb(7,86,254)" stroke="rgb(7,86,254)" stroke-width="1" opacity="0.984313725490196" d="M 45.5 82 L 48 83 L 47 85.5 L 49 86 L 50 88.5 L 46 85.5 L 47 84.5 L 45.5 82 Z " /><path fill="rgb(7,86,254)" stroke="rgb(7,86,254)" stroke-width="1" opacity="0.984313725490196" d="M 51.5 87 L 54.5 88 L 56 87.5 L 55 89.5 L 55.5 91 L 53 90.5 L 54 88 Q 50.7 88.7 51.5 87 Z " /></svg>