<svg width="128" height="128" version="1.1" xmlns="http://www.w3.org/2000/svg" desc="Created with imagetracer.js version 1.2.6" ><path fill="rgb(0,0,0)" stroke="rgb(0,0,0)" stroke-width="1" opacity="0" d="M 0 0 L 128 0 L 128 128 L 0 128 L 0 0 Z M 79 22 L 67 31 Q 61 34 62 43 L 68 48 L 86 55 L 88 55 L 91 54 L 93 50 L 91 43 L 80 39 Q 77 40 78 38 L 83 34 L 87 28 L 85 24 Q 84 21 79 22 Z M 37 33 L 33 34 L 31 38 L 31 56 L 33 61 Q 35 65 43 63 L 46 60 L 49 52 L 48 51 L 48 43 L 46 40 L 44 37 Q 43 32 37 33 Z M 108 36 L 106 37 L 102 42 L 103 44 L 103 54 L 102 55 L 103 59 L 101 67 L 97 75 L 90 82 L 82 86 L 73 88 L 47 88 L 34 82 Q 27 78 26 71 L 22 68 L 18 69 L 15 74 L 17 73 L 15 78 L 18 84 L 33 96 L 50 100 L 73 100 L 89 96 L 98 91 L 100 87 L 104 86 L 112 74 L 115 62 L 115 51 L 116 50 Q 117 41 115 37 Q 113 35 108 36 Z " /><path fill="rgb(8,86,252)" stroke="rgb(8,86,252)" stroke-width="1" opacity="0.27450980392156865" d="M 78.5 22 Q 83.8 20.8 85 23.5 L 87 27.5 L 82.5 34 L 78 37.5 Q 77.3 39.8 79.5 39 L 91 43 L 93 49.5 L 90.5 54 L 87.5 55 L 85.5 55 L 81 53.5 L 83.5 53 L 85.5 54 L 91 50.5 Q 91.8 46.8 89.5 46 L 86.5 44 L 76 38.5 L 77.5 36 Q 79.8 36.8 79 34.5 L 82 32.5 L 80.5 30 L 82.5 31 L 84 29.5 L 83 26.5 L 81.5 23 L 78.5 23 L 72 27.5 Q 72.8 29.8 70.5 29 L 65 33.5 L 63.5 36 L 63 34.5 L 78.5 22 Z " /><path fill="rgb(8,86,252)" stroke="rgb(8,86,252)" stroke-width="1" opacity="0.27450980392156865" d="M 36.5 33 Q 42.7 32.3 44 36.5 L 42.5 36 L 35.5 35 L 32 39.5 L 32 41.5 Q 31.3 43.8 33.5 43 L 33.5 44 L 32 44.5 L 32 55.5 L 31 55.5 L 31 37.5 L 33 34 L 36.5 33 Z " /><path fill="rgb(8,86,252)" stroke="rgb(8,86,252)" stroke-width="1" opacity="0.27450980392156865" d="M 107.5 36 Q 112.9 35.4 115 37 Q 117.3 40.6 116 49.5 L 115 49.5 Q 115.9 42.7 114 40 L 111 39.5 L 113 38.5 L 106 38 L 104 41.5 L 105 45.5 L 102.5 58 L 102 54.5 L 103 53.5 L 103 43.5 L 102 41.5 L 105.5 37 L 107.5 36 Z " /><path fill="rgb(8,86,252)" stroke="rgb(8,86,252)" stroke-width="1" opacity="0.27450980392156865" d="M 62.5 37 L 63 39.5 L 62 39.5 L 62.5 37 Z " /><path fill="rgb(8,86,252)" stroke="rgb(8,86,252)" stroke-width="1" opacity="0.27450980392156865" d="M 45.5 38 L 48 44.5 L 47 44.5 L 45.5 38 Z " /><path fill="rgb(8,86,252)" stroke="rgb(8,86,252)" stroke-width="1" opacity="0.27450980392156865" d="M 62.5 41 L 67.5 47 L 80 52.5 L 78.5 53 L 67.5 48 L 62 42.5 L 62.5 41 Z " /><path fill="rgb(8,86,252)" stroke="rgb(8,86,252)" stroke-width="1" opacity="0.27450980392156865" d="M 47.5 46 L 49 51.5 L 47.5 55 L 47 52.5 L 47 50.5 L 47.5 46 Z " /><path fill="rgb(8,86,252)" stroke="rgb(8,86,252)" stroke-width="1" opacity="0.27450980392156865" d="M 114.5 55 L 115 61.5 L 113 62.5 L 114.5 55 Z " /><path fill="rgb(8,86,252)" stroke="rgb(8,86,252)" stroke-width="1" opacity="0.27450980392156865" d="M 46.5 56 L 47 57.5 L 42.5 63 Q 34.8 64.8 33 60.5 L 32 57.5 L 33 57.5 L 36.5 62 Q 43.5 63.5 45 59.5 L 46.5 56 Z " /><path fill="rgb(8,86,252)" stroke="rgb(8,86,252)" stroke-width="1" opacity="0.27450980392156865" d="M 102.5 59 L 103 61.5 L 102 61.5 L 102.5 59 Z " /><path fill="rgb(8,86,252)" stroke="rgb(8,86,252)" stroke-width="1" opacity="0.27450980392156865" d="M 101 63 L 103 63.5 L 101.5 66 L 101 63 Z " /><path fill="rgb(8,86,252)" stroke="rgb(8,86,252)" stroke-width="1" opacity="0.27450980392156865" d="M 113.5 64 L 114 66.5 L 113 66.5 L 113.5 64 Z " /><path fill="rgb(8,86,252)" stroke="rgb(8,86,252)" stroke-width="1" opacity="0.27450980392156865" d="M 100 67 L 102 67.5 L 97.5 74 L 98 72.5 L 100 67 Z " /><path fill="rgb(8,86,252)" stroke="rgb(8,86,252)" stroke-width="1" opacity="0.27450980392156865" d="M 19.5 68 L 23.5 70 L 25 69.5 L 24.5 71 Q 26.8 70.3 26 72.5 L 33.5 82 L 42 86.5 L 40.5 87 L 29 80 L 24 71 Q 20.2 70.3 19 73.5 L 19.5 75 L 18 75.5 L 19 78.5 L 17.5 80 Q 15.3 80.8 16 78.5 L 15 73.5 L 17.5 69 L 19.5 68 Z " /><path fill="rgb(8,86,252)" stroke="rgb(8,86,252)" stroke-width="1" opacity="0.27450980392156865" d="M 112.5 68 L 113 70.5 L 104 86 L 101.5 87 L 104 83.5 L 106 80.5 L 106 78.5 L 111 73.5 L 112.5 68 Z " /><path fill="rgb(8,86,252)" stroke="rgb(8,86,252)" stroke-width="1" opacity="0.27450980392156865" d="M 96.5 75 L 97 77 L 85.5 86 L 82.5 86 L 82.5 85 Q 91.9 82.4 96.5 75 Z " /><path fill="rgb(8,86,252)" stroke="rgb(8,86,252)" stroke-width="1" opacity="0.27450980392156865" d="M 17.5 81 Q 20.1 80.2 19 83.5 Q 26.4 93.6 40 97.5 L 37.5 98 Q 25.3 93.3 18 83.5 L 17.5 81 Z " /><path fill="rgb(8,86,252)" stroke="rgb(8,86,252)" stroke-width="1" opacity="0.27450980392156865" d="M 78.5 86 L 81 86.5 L 73.5 89 L 47.5 89 L 47.5 88 L 72.5 88 L 78.5 86 Z " /><path fill="rgb(8,86,252)" stroke="rgb(8,86,252)" stroke-width="1" opacity="0.27450980392156865" d="M 99.5 88 L 97.5 91 L 99.5 88 Z " /><path fill="rgb(8,86,252)" stroke="rgb(8,86,252)" stroke-width="1" opacity="0.27450980392156865" d="M 95.5 91 L 94.5 93 L 92.5 94 L 93.5 92 L 95.5 91 Z " /><path fill="rgb(8,86,252)" stroke="rgb(8,86,252)" stroke-width="1" opacity="0.27450980392156865" d="M 89.5 94 L 91 94.5 L 87.5 96 L 87.5 95 L 89.5 94 Z " /><path fill="rgb(8,86,252)" stroke="rgb(8,86,252)" stroke-width="1" opacity="0.27450980392156865" d="M 76.5 97 L 82 97.5 L 72.5 100 L 59.5 100 L 59.5 99 Q 70.4 100.4 76.5 97 Z " /><path fill="rgb(8,86,252)" stroke="rgb(8,86,252)" stroke-width="1" opacity="0.27450980392156865" d="M 42.5 98 L 48 98.5 L 42.5 99 L 42.5 98 Z " /><path fill="rgb(8,86,252)" stroke="rgb(8,86,252)" stroke-width="1" opacity="0.27450980392156865" d="M 49.5 99 L 55 99.5 L 49.5 100 L 49.5 99 Z " /><path fill="rgb(7,86,254)" stroke="rgb(7,86,254)" stroke-width="1" opacity="0.9215686274509803" d="M 78.5 23 Q 82.3 22.3 83 24.5 L 84 27.5 L 82.5 31 L 80.5 30 L 81.5 33 L 79 34.5 Q 79.8 36.8 77.5 36 L 76 38.5 L 88 44 Q 86.9 46.7 89.5 46 Q 91.8 46.8 91 50.5 L 85.5 54 L 67.5 47 L 63 42.5 L 62 40.5 L 63 36.5 L 66.5 32 L 72 29 L 73.5 26 L 78.5 23 Z " /><path fill="rgb(7,86,254)" stroke="rgb(7,86,254)" stroke-width="1" opacity="0.9215686274509803" d="M 35.5 35 Q 42.7 34.3 45 38.5 L 48 45.5 L 47 50.5 L 47 52.5 L 47 55.5 L 42.5 62 Q 34.5 63.5 33 58.5 L 32 56.5 L 32 44 L 34 43.5 L 32 43 L 33 40.5 L 32 38.5 L 35.5 35 Z " /><path fill="rgb(7,86,254)" stroke="rgb(7,86,254)" stroke-width="1" opacity="0.9215686274509803" d="M 106 38 L 113 38.5 L 111 39.5 L 114 40 L 115 42.5 L 115 54.5 L 113 62.5 L 113 64.5 Q 112.8 74.8 106 78.5 L 106 80.5 L 104 83.5 Q 97.8 92.3 86.5 96 L 76.5 97 L 70.5 99 L 55.5 100 L 47.5 98 L 40.5 98 L 34.5 96 L 19 83.5 Q 20.1 80.2 17.5 81 L 19 78.5 L 18.5 75 L 20 74.5 Q 17.3 72.8 21.5 71 Q 24.8 69.9 24 72.5 L 29 80 L 40.5 87 L 47.5 89 L 73.5 89 L 81.5 86 L 85.5 86 L 97 77 L 97 74.5 L 102 67.5 L 102 65.5 L 103 63.5 L 103 61.5 L 105 42.5 Q 102.5 41 106 39.5 L 106 38 Z " /></svg>